<?xml version="1.0" encoding="utf-8"?>
<!-- Generator: Adobe Illustrator 16.0.0, SVG Export Plug-In . SVG Version: 6.00 Build 0)  -->
<!DOCTYPE svg PUBLIC "-//W3C//DTD SVG 1.1//EN" "http://www.w3.org/Graphics/SVG/1.1/DTD/svg11.dtd">
<svg version="1.1" id="Layer_1" xmlns="http://www.w3.org/2000/svg" xmlns:xlink="http://www.w3.org/1999/xlink" x="0px" y="0px"
	 width="792px" height="797.5px" viewBox="0 0 792 797.5" enable-background="new 0 0 792 797.5" xml:space="preserve">
<g id="vm404">
  <circle id="circle1" fill="#fff" stroke="#010101" stroke-width="10" stroke-miterlimit="20" cx="395.438" cy="391.75" r="355.037"/>
  <g >
  	<g id="face">
  		<path class="facePath"  d="M438.546,54.897c1.794,0,3.588,0,5.382,0c-0.615,15.98-17.2,15.993-14.802,34.987c-4.13,5.739-9.797,9.939-14.803,14.802
  			C417.644,88.714,431.002,71.132,438.546,54.897z"/>
  		<path class="facePath" id="face2" d="M491.026,64.317c-1.317,4.962-5.894,6.666-8.074,10.765C481.05,72.214,486.536,65.261,491.026,64.317z"/>
  		<path class="facePath" d="M403.558,67.009c5.584,1.147,6.735,12.38,4.037,17.493c-3.369-4.704-4.833-11.314-8.072-16.148
  			C401.431,68.47,403.332,68.577,403.558,67.009z"/>
  		<path class="facePath" d="M388.756,73.737c3.12-0.429,5.166,0.216,6.729,1.346c-0.681,5.15-1.221,10.442-6.729,10.765
  			c-0.037-1.309-1.647-1.044-2.691-1.346C386.396,80.348,387.429,76.896,388.756,73.737z"/>
  		<path class="facePath" d="M516.594,75.083c2.122,2.416,4.081,27.189-2.689,29.604C513.065,93.084,515.741,84.995,516.594,75.083z"/>
  		<path class="facePath" d="M360.497,83.157c11.956,2.631,7.087,19.45,4.037,28.259c4.42-6.794,11.037-11.39,17.493-16.148
  			c-0.87,6.524-3.75,17.706-6.729,24.223c8.199-4.737,17.447-4.591,26.914-5.382c-8.81,12.573-31.923,3.666-40.37,17.493
  			c-3.165-5.014,7.252-7.958,8.074-13.457c-11.476,1.172-28.827,5.444-39.024,9.42c-4.28-7.461,6.785-11.127,8.073-17.494
  			c4.03,0.885-1.286,2.876,0,5.383c9.816-1.397,13.342-9.086,16.148-17.494c5.481,5.805-1.312,14.594-5.383,18.839
  			C368.521,115.203,359.561,94.095,360.497,83.157z"/>
  		<path class="facePath" d="M348.386,87.193c3.379,2.176-2.39,6.476-2.691,9.42c-3.317,0.177-6.483,0.204-8.074-1.347
  			C337.751,89.118,345.52,90.607,348.386,87.193z"/>
  		<path class="facePath" d="M330.893,95.268c3.607,9.96,6.188,22.368-5.383,25.567c4.036-8.441,2.427-18.094-5.383-21.53
  			C322.41,96.653,326.385,95.694,330.893,95.268z"/>
  		<path class="facePath" d="M538.125,95.268c2.156,6.594-9.884,28.234-22.877,24.223c0.107-5.275,2.372-8.394,4.037-12.111
  			c3.116,1.513-1.901,5.215,2.69,6.729C531.352,111.819,533.651,102.457,538.125,95.268z"/>
  		<path class="facePath" d="M439.892,99.305c-30.145,8.432-34.823,42.327-71.32,44.407c-0.886-4.922,2.911-5.162,2.691-9.419
  			c10.742-1.817,24.371-0.748,29.604-8.074c-4.611-1.875-12.174,4.839-21.531,2.691c6.571-6.977,15.108-4.157,22.877-8.074
  			C416.032,113.866,424.286,93.463,439.892,99.305z"/>
  		<path class="facePath" d="M462.768,131.601c-4.871-2.579-7.965,8.147-16.147,6.729c-2.634-2.515-0.415-4.929,0-8.074
  			c18.621-6.499,28.712-21.525,41.716-33.642c-0.594,10.172-6.381,15.148-10.766,21.53c0.886,4.03,2.877-1.286,5.383,0
  			c-5.953,8.4-11.516,17.191-24.222,18.84C458.502,133.615,460.798,132.771,462.768,131.601z M465.459,126.218
  			c-5.064,5.58,11.582-5.735,10.765-12.11C474.691,118.918,465.954,125.673,465.459,126.218z"/>
  		<path class="facePath" d="M286.485,110.07c1.346,0,2.691,0,4.037,0c0.938,17.452-1.565,30.367-17.494,33.642
  			c-7.979-10.914,3.845-19.842,12.111-22.876C285.3,116.959,284.404,112.026,286.485,110.07z"/>
  		<path class="facePath" d="M435.854,116.798c0.852,6.259-8.857,13.55-18.84,13.457C419.811,122.285,429.996,121.706,435.854,116.798z"/>
  		<path class="facePath" d="M419.706,118.144c2.216,6.286-7.041,12.671-13.457,14.803C405.499,122.776,415.011,122.868,419.706,118.144z"/>
  		<path class="facePath" d="M515.248,167.934c-0.75-11.516,5.489-16.042,8.074-24.222c-2.807-4.008-5.481,3.383-9.419,2.691
  			c8.944-11.688,21.394-19.873,34.985-26.914c-6.795,14.734-20.937,22.124-28.259,36.333
  			C520.745,161.768,520.892,167.746,515.248,167.934z"/>
  		<path class="facePath" d="M449.311,120.835c0.521,4.592-6.742,12.968-12.109,16.148C437.065,127.429,443.999,124.943,449.311,120.835z"/>
  		<path class="facePath" d="M325.51,124.872c-0.404,5.428-1.986,9.677-8.074,9.42C316.165,127.463,321.007,121.685,325.51,124.872z"/>
  		<path class="facePath" d="M489.681,123.526c-0.259,4.675-4.76,5.108-5.383,9.42c-0.411,2.732,3.888-0.275,4.037-1.347
  			c-1.173,6.472-12.859,14.04-21.53,17.494C471.131,137.272,479.996,129.99,489.681,123.526z"/>
  		<path class="facePath" d="M356.46,124.872c2.289-0.495,2.539,1.05,2.691,2.691c-21.693,12.845-39.481,29.596-57.863,45.753
  			c2.417-14.941,26.146-18.392,26.913-36.333C337.104,132.429,350.948,132.817,356.46,124.872z"/>
  		<path class="facePath" d="M437.2,124.872c5.374,2.144-9.363,10.721-2.691,18.839c-20.543-1.424-6.498,24.054-24.223,24.222
  			C413.466,147.928,422.994,136.336,437.2,124.872z"/>
  		<path class="facePath" d="M340.312,127.562c-4.615,6.15-14.927,6.604-20.185,12.111c0.676,7.646,1.952,12.889-6.729,13.457
  			C314.398,136.638,326.796,131.541,340.312,127.562z"/>
  		<path class="facePath" d="M371.263,128.909c-1.498,7.562-17.089,22.159-9.42,34.987c-4.189,2.539-3.323,10.134-10.766,9.42
  			c2.899-8.315,3.643-18.785,6.729-26.914c-9.648,2.921-4.732,32.042-22.877,30.949
  			C346.127,160.292,353.362,139.269,371.263,128.909z"/>
  		<path class="facePath" d="M614.828,130.255c2.265,1.671,6.872,3.914,4.036,6.729C616.506,135.753,614.189,134.481,614.828,130.255z"/>
  		<path class="facePath" d="M312.053,131.601c5.524,21.23-15.734,27.321-28.259,34.987c3.471-10.883,14.344-14.364,24.222-18.839
  			C307.81,140.814,309.739,136.015,312.053,131.601z"/>
  		<path class="facePath" d="M517.939,131.601c-5.845,7.613-11.836,15.078-24.223,16.148c-0.052-4.986,2.066-7.801,4.037-10.765
  			C506.673,137.379,509.604,131.785,517.939,131.601z"/>
  		<path class="facePath" d="M419.706,134.292c-2.812,5.263-5.698,10.45-13.457,10.765C406.611,137.87,412.616,130.404,419.706,134.292z"/>
  		<path class="facePath" d="M306.67,135.638c0.058,6.788-6.134,12.98-10.765,10.766C296.557,139.878,298.679,134.823,306.67,135.638z"/>
  		<path class="facePath" d="M217.856,136.983c-1.45,4.829-4.545,8.014-12.111,6.728C206.347,138.033,212.68,138.086,217.856,136.983z"/>
  		<path class="facePath" d="M250.152,138.329c0.058,7.234-3.169,11.185-10.766,10.765C233.822,140.95,242.129,132.643,250.152,138.329z"/>
  		<path class="facePath" d="M386.064,159.859c8.674,0.135,16.492-12.203,28.259-13.457c-8.263,11.923-22.282,18.087-29.604,30.949
  			c4.858-0.075,6.514-3.354,10.766-4.036c-4.592,8.864-14.187,12.727-22.876,17.492c-2.604-7.564,7.356-14.151,10.765-20.185
  			c-4.532-4.005-8.605,3.896-13.456,4.037c0.259-4.675,4.759-5.109,5.382-9.42c-7.962-4.848-11.364,11.039-13.456,20.185
  			c1.895,2.671,4.553-5.225,6.729-6.729c2.062,6.578-8.73,11.881-6.729,22.876c1.463,1.809,6.584-4.104,9.42-5.383
  			c4.786,6.192-6.583,7.726-8.074,12.11c-0.066,14.288-1.662,27.045-10.766,32.296c0.334-6.394,4.123-9.333,5.383-14.803
  			c-12.432,3.268-11.93,19.47-18.84,28.259c-9.018-21.084,22.378-23.977,17.494-49.79c-3.029,2.803-4.334,7.328-8.074,9.419
  			c-2.485-7.002,8.662-11.948,9.42-20.185c-1.896-2.671-4.553,5.226-6.729,6.729c8.177-21.879,16.658-55.107,45.753-60.555
  			c-4.188,6.577-13.62,7.911-16.148,16.148c7.135,2.287,11.468-8.9,20.186-9.419C396.831,151.787,390.833,155.208,386.064,159.859z"
  			/>
  		<path class="facePath" d="M465.459,151.786c0.637,7.365-4.076,9.381-9.42,10.765C456.61,156.394,458.971,152.025,465.459,151.786z"/>
  		<path class="facePath" d="M166.721,154.477c5.471,0.929-3.785,8.166-9.419,6.729C157.42,155.941,164.546,157.685,166.721,154.477z"/>
  		<path class="facePath" d="M306.67,158.514c-11.146,6.348-12.947,22.041-26.913,25.568c3.23-5.292,8.881-8.165,12.111-13.457
  			c-12.871,7.319-34.191,17.837-49.79,26.913c0.815,7.095-1.192,11.367-6.729,12.111c1.548-9.946,4.782-16.445,9.42-21.531
  			c8.105-8.89,17.793-8.292,29.604-12.111C286.757,172.004,294.866,160.013,306.67,158.514z"/>
  		<path class="facePath" d="M453.348,158.514c-8.247,6.557-8.907,20.696-17.492,26.914c0.106-5.274,2.37-8.394,4.036-12.11
  			c-1.852-3.056-6.708,2.156-8.073,4.036C433.132,170.577,444.698,162.438,453.348,158.514z"/>
  		<path class="facePath" d="M647.124,158.514c-9.177,12.368-9.332,38.354-29.604,37.68c4.521-7.591,15.105-9.116,18.84-17.494
  			c0.93-5.416-5.667-3.305-5.383-8.074C635.825,166.055,641.013,161.822,647.124,158.514z"/>
  		<path class="facePath" d="M539.471,184.082c-6.595,2.058-23.194,12.521-36.333,8.074c17.845-2.341,29.188-11.183,43.062-17.493
  			c1.979-5.119-6.016-0.265-4.036-5.383c14.855-1.292,28.365-3.931,39.023-9.42c-6.7,13.933-28.609,12.656-40.369,21.53
  			c2.855,2.768,9.32-2.273,14.802-1.346c-4.851,5.915-10.08,11.451-20.186,12.111C534.923,187.607,537.766,186.414,539.471,184.082z
  			"/>
  		<path class="facePath" d="M266.3,161.205c-0.866,5.413-3.336,9.223-10.765,8.074C255.121,162.586,258.887,160.071,266.3,161.205z"/>
  		<path class="facePath" d="M461.422,165.242c-0.994,4.837-2.668,8.994-9.42,8.074C453.756,169.238,454.915,164.567,461.422,165.242z"/>
  		<path class="facePath" d="M625.593,169.279c-0.614-4.205,2.875-4.303,6.729-4.037C632.938,169.446,629.446,169.544,625.593,169.279z"/>
  		<path class="facePath" d="M207.091,166.588c3.526,1.791,2.57,5.973,1.346,9.419C203.324,174.782,207.452,170.6,207.091,166.588z"/>
  		<path class="facePath" d="M534.088,167.934c3.948,3.391-4.851,16.432-13.457,16.148C521.479,175.061,526.765,170.479,534.088,167.934z"/>
  		<path class="facePath" fill="#FFFFFF" d="M400.867,177.353c1.461,0.333,0.912,2.677,2.689,2.691c-1.598,4.682-2.935,9.625-8.073,10.765
  			C397.559,186.604,398.352,181.118,400.867,177.353z"/>
  		<path class="facePath" d="M351.077,180.044c0.787,20.075-11.691,26.885-17.494,40.37c1.207-12.699,7.358-20.453,12.111-29.605
  			c-1.645-1.942-5.136-2.041-6.729-4.036C340.103,180.323,344.77,177.933,351.077,180.044z"/>
  		<path class="facePath" d="M456.039,178.699c3.906,4.889-3.694,7.263-6.729,9.42C447.005,185.723,451.779,178.991,456.039,178.699z"/>
  		<path class="facePath" d="M176.141,180.044c-0.595,3.892-2.837,6.134-6.729,6.729C170.007,182.881,172.249,180.639,176.141,180.044z"/>
  		<path class="facePath" d="M239.387,184.082c-3.073,4.552-1.49,13.76-10.765,12.111C223.969,187.709,230.556,178.545,239.387,184.082z"/>
  		<path class="facePath" d="M454.693,193.501c-1.778,4.501-5.758,6.803-12.11,6.729C442.554,193.806,450.109,187.236,454.693,193.501z"/>
  		<path class="facePath" d="M200.362,192.155c2.593,0.547,1.063,5.217,5.383,4.037c-0.986,5.741-4.148,9.308-10.766,9.42
  			C191.015,199.979,196.726,194.458,200.362,192.155z"/>
  		<path class="facePath" d="M544.854,197.538c-2.899,5.174-10.192,5.955-16.147,8.074c6.638,3.235,19.454-3.797,26.913,0
  			c-1.081,3.403-5.539,3.432-8.074,5.382c6.922,6.087,20.708,5.309,30.951,8.074c-10.127,4.362-31.182-2.631-43.062-5.384
  			c-1.18-4.319,3.489-2.79,4.037-5.382c-7.663-0.037-11.833,3.418-20.186,2.691c-0.466,8.54,8.129,8.02,6.729,17.494
  			c-4.024-2.254-6.398-6.16-9.42-9.419c-2.232,6.289-1.885,15.159-5.382,20.185c-4.207-7.385,2.205-22.771-1.346-34.987
  			c3.065,0.376,5.059-0.323,5.382-2.69c3.104-0.412,1.495,3.888,4.037,4.037c4.173,0.135,6.429-1.646,9.42-2.691
  			c1.663-4.354-4.354-1.028-2.691-5.383C532.446,198.032,539.537,193.891,544.854,197.538z"/>
  		<path class="facePath" d="M133.079,197.538c5.824,2.21,0.726,10.848-1.346,13.457C127.405,207.29,130.15,201.004,133.079,197.538z"/>
  		<path class="facePath" d="M322.818,200.229c4.905,9.114-5.472,25.802-2.691,41.717c2.023,2.369,5.93-4.76,6.729-8.074
  			c3.099,6.28-3.466,14.446-2.691,22.876c6.021,0.19,3.867-7.795,6.729-10.765c2.856,4.263-2.021,12.287-2.691,17.492
  			c1.392,2.596,5.336-3.528,6.728-5.382c0.659,7.855-5.746,20.254-14.802,22.876c0.547-4.969-1.515-11.104-4.037-14.803
  			c-10.079-14.778-21.191,1.782-32.296,8.074c-3.322-8.171-0.811-21.18,6.729-22.876c-1.074,2.515-2.249,4.929-2.691,8.074
  			c5.403-6.344,31.369-17.862,22.876-33.643C313.418,215.949,321.899,211.87,322.818,200.229z"/>
  		<path class="facePath" d="M234.004,204.267c-0.268,6.46-2.953,10.503-10.765,9.419C222.569,205.948,228.388,197.698,234.004,204.267z"/>
  		<path class="facePath" d="M164.029,204.267c5.267-0.78,7.813,1.158,10.766,2.691c-1.419,5.309-5.209,8.248-9.42,10.765
  			C159.944,215.727,162.314,209.166,164.029,204.267z"/>
  		<path class="facePath" d="M267.646,215.032c-2.547,1.96-6.614,6.446-10.765,2.69c-4.273,3.353-3.436,11.816-10.766,12.111
  			C243.097,218.498,261.514,193.252,267.646,215.032z"/>
  		<path class="facePath" fill="#FFFFFF" d="M431.817,209.649c3.592,1.969-0.563,7.383-4.037,6.728C427.144,212.153,431.401,212.822,431.817,209.649z"
  			/>
  		<path class="facePath" d="M213.819,210.995c3.12-0.429,5.166,0.216,6.729,1.346c0.06,6.34-3.891,8.669-6.729,12.111
  			C207.83,222.257,213.601,215.181,213.819,210.995z"/>
  		<path class="facePath" d="M349.731,217.723c-2.607,11.299-12.458,15.354-17.494,24.223C333.914,230.467,336.571,213.284,349.731,217.723z"/>
  		<path class="facePath" d="M531.396,217.723c4.08-0.044,3.353,4.722,4.036,8.074c5.862-5.655,9.432-4.222,16.147-2.69
  			c1.003,4.142-3.693,2.586-2.691,6.728c5.158-2.02,8.221-6.134,14.804-6.728c-6.763,6.694-10.409,16.504-24.223,16.147
  			c1.946-2.09,1.794-6.279,4.037-8.074c-0.028-4.01-6.349-1.726-8.074-4.037c-0.168,5.552,2.339,8.428,1.347,14.804
  			c-1.769-1.615-2.116-0.524-4.037,0c2.015,3.815,2.806,8.855,4.037,13.457c6.43-1.195,8.692-6.558,12.109-10.766
  			c3.392,11.481-12.476,15.321-17.492,22.876c-1.854-1.733-1.332-5.845-1.347-9.419c-1.17-3.975-2.015,3.122-5.383,1.347
  			C529.367,247.99,528.364,230.839,531.396,217.723z"/>
  		<path class="facePath" d="M601.371,219.069c2.597,0.543,0.117,6.163,5.383,4.037c-1.405,6.144-9.687,11.333-16.148,8.073
  			C591.128,224.076,597.233,222.557,601.371,219.069z"/>
  		<path class="facePath" fill="#FFFFFF" d="M236.695,223.106c0.665,7.413-17.652,7.45-13.456,22.876C215.049,234.05,226.15,224.524,236.695,223.106z"
  			/>
  		<path class="facePath" d="M481.605,227.143c3.125,6.306,0.019,17.93-4.036,21.531C470.363,242.652,478.289,231.311,481.605,227.143z"/>
  		<path class="facePath" d="M517.939,227.143c9.812,14.362,3.934,36.964-4.036,48.444c3.292,1.443,6.582-8.627,12.109-9.42
  			c-2.407,12.394-8.255,21.35-13.456,30.95c-14.08-19.372,9.555-32.604,6.729-53.826c-6.27,4.497-4.709,16.821-12.11,20.185
  			C508.578,249.18,515.995,240.897,517.939,227.143z"/>
  		<path class="facePath" d="M587.914,228.488c-10.159,5.091-15.583,14.919-25.567,20.185C558.001,234.445,574.315,229.254,587.914,228.488z"/>
  		<path class="facePath" fill="#FFFFFF" d="M407.595,229.834c-3.286,9.373-14.491,4.186-21.53,5.383c-14.829,2.523-24.184,12.136-33.642,18.839
  			C361.275,236.224,384.594,229.506,407.595,229.834z"/>
  		<path class="facePath" d="M295.905,250.019c-3.912-7.981,6.386-13.324,9.419-18.839C312.726,237.6,298.418,244.639,295.905,250.019z"/>
  		<path class="facePath" d="M488.335,232.525c1.728,14.744-4.926,32.746-13.457,41.716c0-3.588,0-7.177,0-10.767
  			C484.755,258.55,484.082,243.074,488.335,232.525z"/>
  		<path class="facePath" d="M622.901,233.871c5.377,4.816-13.255,8.027-16.147,13.457c0.153,6.433-3.584,8.976-5.383,13.457
  			c-5.616,1.561-10.041,4.312-14.802,6.728c-14.478-4.439-21.282,9.994-32.297,13.457c-0.06-5.891,3.848-7.814,6.729-10.766
  			c-8.227-1.049-8.527,5.826-14.803,6.729c-0.17-2.414,1.646-2.838,1.346-5.383c-5.924,1.701-8.977,6.274-14.802,8.074
  			c-3.141-7.657,7.244-13.367,13.456-16.148c2.677-8.536,7.338-15.09,10.766-22.876c2.375,2.465-1.487,10.106-1.346,14.803
  			c15.893,10.785,33.936-7.139,43.062-16.148c2.701,8.557-10.019,13.288-13.456,20.186
  			C603.241,256.375,604.007,236.059,622.901,233.871z"/>
  		<path class="facePath" d="M594.643,235.217c-0.039,10.383-18.646,20.688-30.949,18.839C571.271,245.039,579.013,236.183,594.643,235.217z"/>
  		<path class="facePath" d="M433.163,236.562c-3.565,8.994-9.229,15.891-21.531,16.147c2.174-5.72,22.027-7.213,14.803-13.457
  			C426.633,236.312,429.825,236.364,433.163,236.562z"/>
  		<path class="facePath" d="M624.247,240.6c6.145,9.038-13.701,14.856-17.493,22.876c0.56,8.634-1.081,15.067-4.037,20.186
  			C594.781,259.57,615.628,252.619,624.247,240.6z"/>
  		<path class="facePath" d="M507.175,243.291c2.415,6.932-2.896,17.713-9.42,20.185c2.402-4.324,0.783-12.674,2.691-17.492
  			C503.773,249.906,505.707,247.617,507.175,243.291z"/>
  		<path class="facePath" d="M687.493,247.328c10.24,2.32,14.647,10.472,16.147,21.531c-3.173,0.416-2.504,4.673-6.729,4.037
  			C695.513,262.633,692.121,254.363,687.493,247.328z"/>
  		<path class="facePath" d="M98.092,255.402c1.346,0,2.691,0,4.037,0c0,1.346,0,2.69,0,4.037c-3.672-0.122-2.709,2.24-5.383,0
  			C97.458,258.356,98.15,257.254,98.092,255.402z"/>
  		<path class="facePath" d="M173.449,256.748c13.12,13.172,40.719-0.79,43.062,25.567c-9.881-0.649-10.127-17.394-22.877-10.766
  			c-2.147,3.555,8.34,5.969,6.729,13.457C192.743,274.235,177.05,271.538,173.449,256.748z"/>
  		<path class="facePath" d="M411.632,263.476c-3.955,2.46-11.106,3.799-16.147,1.347C396.565,259.044,411.731,254.81,411.632,263.476z"/>
  		<path class="facePath" d="M390.102,260.785c4.521,3.792-0.998,22.793,10.766,24.222c7.795,0.947,11.351-6.521,12.109-17.494
  			c7.319,9.87-2.868,25.599,0,39.024c-7.715-1.256-6.969-10.973-14.802-12.111c-6.717,3.152-8.716,11.021-17.494,12.111
  			c0.909-6.716,4.19-11.061,4.037-18.839c3.035,1.002,0.526,7.548,1.346,10.765c6.733-5.76,4.487-13.337,2.691-22.876
  			c-10.85,10.232-8.192,33.972-18.839,44.407c0,3.588,0,7.177,0,10.766c-8.379-17.188-13.616-37.52-17.494-59.209
  			c5.318,2.326,10.471,16.43,14.803,24.223c-4.267-2.462-6.041-7.417-8.074-12.111c-1.961,10.5,10.793,17.902,8.074,33.642
  			c7.269-8.765,9.574-20.081,9.419-32.296C376.492,272.967,387.746,272.466,390.102,260.785z"/>
  		<path class="facePath" d="M449.311,259.439c3.035,1.002,0.526,7.548,1.347,10.765c7.104,0.376,2.099-11.358,10.766-9.419
  			c-2.446,10.114-3.312,21.808-14.803,22.876C442.724,275.749,448.359,266.874,449.311,259.439z"/>
  		<path class="facePath" d="M649.815,262.13c-7.571-0.36-21.036,3.591-28.261,2.691C626.883,258.464,641.631,258.426,649.815,262.13z"/>
  		<path class="facePath" d="M384.719,260.785c5.898,2.242-5.966,12.297-9.42,9.419C375.984,264.609,381.067,263.412,384.719,260.785z"/>
  		<path class="facePath" d="M274.374,262.13c8.621,9.832,1.479,19.492-5.383,29.605c-2.67-2.544-2.293-4.718-1.346-8.074
  			c-5.466,2.607-1.471,14.677-2.691,21.531c-5.658-3.762-1.34-17.5-2.691-25.567c-0.93-3.36-3.589,2.497-6.728,1.346
  			C259.147,269.125,270.055,271.727,274.374,262.13z"/>
  		<path class="facePath" d="M594.643,264.821c3.39,7.157-12.495,17.872-22.876,20.185C572.467,271.354,591.065,275.598,594.643,264.821z"/>
  		<path class="facePath" d="M491.026,309.229c-0.668-8.587,2.382-25.579-4.037-24.222c0.106-5.274,2.372-8.394,4.037-12.11
  			c3.002,5.969,1.722,16.221,4.036,22.876c1.642-5.819,1.886-18.968,5.384-29.605C500.987,278.83,500.901,302.499,491.026,309.229z"
  			/>
  		<path class="facePath" d="M297.251,268.858c6.149-0.044,0.069,4.721,1.346,8.073C294.158,276.155,296.667,271.851,297.251,268.858z"/>
  		<path class="facePath" d="M505.829,268.858c3.002,1.379,1.062,9.009-2.691,8.073C502.072,272.279,504.634,271.251,505.829,268.858z"/>
  		<path class="facePath" d="M407.595,270.204c0,2.243,0,4.485,0,6.729c-2.646,2.669-7.686,0.856-10.765,0
  			C396.042,270.312,401.254,269.694,407.595,270.204z"/>
  		<path class="facePath" d="M312.053,271.55c2.31,3.97,2.854,9.706,2.691,16.148C309,287.162,313.462,276.421,312.053,271.55z"/>
  		<path class="facePath" d="M231.312,274.241c5.894,2.45,17.572-3.954,20.186,4.037c-2.243,0-4.485,0-6.729,0c1.967,4.762,7.794,5.662,10.766,9.419
  			C247.56,288.477,237.713,279.519,231.312,274.241z"/>
  		<path class="facePath" d="M306.67,274.241c2.055,0.021,2.95,9.972-1.346,8.074C305.147,278.998,305.121,275.832,306.67,274.241z"/>
  		<path class="facePath" d="M338.966,274.241c10.65,10.88,18.911,24.149,20.186,44.407C351.271,304.997,346.676,288.062,338.966,274.241z"/>
  		<path class="facePath" d="M332.237,275.587c7.198,7.156,13.486,15.222,12.111,30.95c-4.302-6.016-4.529-16.104-9.42-21.531
  			c-4.07,3.555-9.281,5.969-9.419,13.457C320.269,288.706,329.212,281.556,332.237,275.587z"/>
  		<path class="facePath" d="M201.708,276.933c8.531,7.617,17.055,15.241,26.914,21.53c2.196-1.851-0.945-9.743-1.346-13.457
  			c7.69,2.839,6.658,14.752,9.419,22.876c2.76,8.119,12.733,19.437,2.691,25.567c-13.797-16.256-22.954-37.151-47.099-43.062
  			c16.752-2.665,33.15,17.852,43.062,30.95C237.44,298.61,206.686,297.078,201.708,276.933z"/>
  		<path class="facePath" d="M145.19,280.97c-1.453,5.269-6.88,9.142-12.111,6.729C131.855,278.922,140.667,276.595,145.19,280.97z"/>
  		<path class="facePath" d="M595.988,278.278c1.577,0.217,1.136,2.453,1.346,4.037c-12.64,6.199-19.977,17.701-22.876,33.642
  			c-4.047-7.672,0.532-18.28,4.037-22.876c-0.588-1.998-1.724,0.531-4.037,0C576.894,283.405,588.189,282.59,595.988,278.278z"/>
  		<path class="facePath" d="M460.076,280.97c2.389,11.822-3.644,26.849-1.346,43.062c4.582,0.097,5.013-3.958,6.729-6.729
  			c2.944,3.472,1.202,13.703,0,17.493c-9.183,0.238-7.608,11.231-14.803,13.457c-0.169-10.561,5.003-25.435,4.037-40.37
  			C453.971,296.699,454.471,288.41,460.076,280.97z"/>
  		<path class="facePath" d="M291.868,283.661c5.475,3.241,2.649,17.836-4.037,17.494C284.6,295.508,287.044,285.567,291.868,283.661z"/>
  		<path class="facePath" d="M538.125,283.661c7.032,2.85-2.109,10.803-2.691,14.802c-2.982,0.741-1.916-2.569-4.036-2.69
  			c-5.999,3.42-5.234,13.604-9.421,18.839C519.724,302.028,529.388,289.736,538.125,283.661z"/>
  		<path class="facePath" d="M278.411,285.006c3.187,6.367-0.502,17.41-8.074,17.494C270.46,294.1,271.894,287.011,278.411,285.006z"/>
  		<path class="facePath" d="M648.47,287.698c-2.614,4.114-8.041,5.416-14.803,5.383C633.825,286.908,643.578,284.843,648.47,287.698z"/>
  		<path class="facePath" d="M299.942,287.698c7.116,3.151,6.359,27.168-5.383,24.222C295.443,302.936,299.737,297.362,299.942,287.698z"/>
  		<path class="facePath" d="M306.67,289.043c4.909,1.507,4.671,10.235,9.42,8.074c-6.312,10.394,5.376,24.15-5.383,30.951
  			C296.004,323.523,314.392,303.088,306.67,289.043z"/>
  		<path class="facePath" d="M581.188,375.166c-7.047,2.836-11.843,19.547-18.841,26.914c-20.69-3.215-13.043-24.189-14.803-41.716
  			c-1.022-10.194-8.262-16.755-6.728-25.568c15.458-9.661,26.967-23.271,29.604-45.752c2.464,19.516-2.459,43.289-8.074,59.209
  			c-2.399-7.81,4.857-17.551,4.037-28.259c-7.297-0.547-5.428,19.676-13.457,22.876c-1.034-5.071,1.644-6.433,1.347-10.767
  			c-5.854-0.92-7.447,2.421-9.421,5.384c3.6,9.409,10.092,15.926,8.074,30.95c6.245-14.389,18.499-22.769,20.187-41.716
  			c4.766,1.179,3.309,0.167,8.073,1.347c0.205,7.382,0.146,14.499-1.346,20.185c-6.017-4.641-12.729,10.819-16.147,17.494
  			c7.19,0.463,4.639-8.818,13.456-6.729c-7.477,7.206-8.431,27.004-22.877,22.876c0.416-4.9-0.214-8.757-1.346-12.11
  			c-4.928,6.829-1.673,18.122,5.383,18.84c12.351,1.255,25.865-31.58,28.261-43.062c-1.802,21.908-2.203,53.016-9.421,71.32
  			C581.135,405.616,578.317,387.548,581.188,375.166z"/>
  		<path class="facePath" d="M504.483,291.735c3.112,4.962-3.12,12.09-5.384,16.147C494.629,301.562,502.572,296.145,504.483,291.735z"/>
  		<path class="facePath" d="M251.498,293.081c6.254,4.027,0.613,18.216-1.346,22.876c-8.447-1.87-11.414-9.22-10.766-20.186
  			c3.26-2.864,5.951,2.998,8.074,5.383C250.721,300.377,250.453,296.073,251.498,293.081z"/>
  		<path class="facePath" d="M332.237,293.081c7.786,8.139,18.449,31.114,9.42,43.061c-10.525-1.213-2.456-10.584-2.691-16.147
  			C338.558,310.331,332.462,302.765,332.237,293.081z"/>
  		<path class="facePath" d="M464.113,294.426c3.705,5.813,2.658,15.348,0,21.531C461.673,311.667,462.161,298.794,464.113,294.426z"/>
  		<path class="facePath" d="M589.26,295.772c4.405,5.559-9.799,15.13-9.419,25.566C576.822,312.019,583.038,300.332,589.26,295.772z"/>
  		<path class="facePath" d="M166.721,297.117c3.428,1.955,3.612,7.152,6.729,9.42c2.795-0.345,0.368-5.912,2.691-6.729
  			c3.796,10.697,12.522,26.662,2.691,36.333c0.032-4.966-0.603-9.266-5.383-9.419c-0.371,6.444-0.901,16.95-5.383,22.876
  			c-4.047-4.137,1.053-10.543,1.346-14.803c-2.361-3.984-2.792,5.155-6.729,4.037c3.852-7.675,4.353-15.123,2.691-25.567
  			c3.669,1.267,2.557,7.312,9.42,5.382C173.052,310.521,165.4,308.307,166.721,297.117z"/>
  		<path class="facePath" d="M396.83,298.463c8.77,5.514,9.265,17.065,24.222,18.84c0,3.141,0,6.279,0,9.419c-1.563-0.219-2.395,0.298-2.69,1.347
  			c-6.469-4.746-13.863-8.565-18.839-14.803c-2.796,0.346-0.368,5.912-2.691,6.729c-2.414-2.904-2.364-6.179-1.346-9.419
  			c-5.586,2.937-4.066,12.979-5.383,20.185c-2.562-2.521-3.381-0.146-6.729,0C382.62,314.755,392.162,309.046,396.83,298.463z"/>
  		<path class="facePath" d="M521.977,298.463c-1.333,8.087-5.109,13.729-6.729,21.531c2.011,4.438,1.586-4.501,5.383-2.691
  			c-2.382,4.795-1.683,12.671-9.419,12.111C515.1,319.396,510.985,301.377,521.977,298.463z"/>
  		<path class="facePath" d="M286.485,302.5c0.173,7.35-0.836,13.518-6.729,14.803C276.641,311.771,278.773,301.519,286.485,302.5z"/>
  		<path class="facePath" d="M182.869,303.846c12.833,6.006,16.896,20.783,26.913,29.604c0.666-7.842-0.387-13.967-2.691-18.839
  			c9.695,13.629,23.029,23.62,21.531,48.443c-8.817-2.846-5.484-17.841-10.766-24.222c-1.843,2.354,1.91,13.163-1.346,17.494
  			c-8.717-10.571-12.487-26.088-22.877-34.987c-1.853,2.083-2.709,8.077-1.346,9.42c0.476,1.886,2.369,0.116,2.691-1.346
  			c2.882,6.061-4.088,13.824-6.728,18.839C181.392,333.755,193.299,315.751,182.869,303.846z"/>
  		<path class="facePath" d="M243.424,349.599c7.003-1.684,4.452,14.883-2.691,14.803c-4.74-7.638-0.458-16.008-1.346-26.914
  			c12.754-4.74,12.761-22.228,18.84-33.643c1.14,11.298-1.449,27.06-1.346,39.024c-2.899-1.139-2.172-5.903-4.037-8.074
  			C248.655,338.681,249.512,347.612,243.424,349.599z"/>
  		<path class="facePath" d="M328.201,303.846c-2.352,10.656-4.012,25.288-9.42,37.68c-20.338,2.396-23.592-12.292-25.567-28.26
  			c6.051,6.695,9.271,21.28,18.839,20.186C327.864,331.641,309.789,307.588,328.201,303.846z"/>
  		<path class="facePath" d="M528.705,303.846c7.416,11.814-5.124,37.5,0,49.79c-0.798,6.827-6.054,9.197-12.111,10.767
  			C519.246,342.831,529.856,329.219,528.705,303.846z"/>
  		<path class="facePath" d="M267.646,307.883c2.174-0.379,2.317,1.271,4.037,1.346c0.935,8.561-1.672,13.579-5.383,17.494
  			C263.026,322.042,265.397,311.511,267.646,307.883z"/>
  		<path class="facePath" d="M351.077,307.883c3.624,20.629,2.504,39.374,9.42,57.864c3.511-4.114-1.461-16.712,6.729-16.148
  			c1.771,4.956,3.04,10.416,2.691,17.494c4.525,0.04,2.74-6.229,5.382-8.073c1.312,2.719,0.129,14.437-4.036,16.147
  			c-6.868-0.309-2.313-12.041-5.383-16.147c-3.066,2.765-0.042,11.62-2.691,14.802C347.606,357.625,349.82,332.779,351.077,307.883z
  			"/>
  		<path class="facePath" d="M503.138,307.883c2.136,8.667,2.681,26.845,5.384,39.024c3.182-3.099,4.306-8.253,6.728-12.111
  			c1.174,9.265-2.421,25.376-12.11,28.259C504.682,343.328,499.645,325.347,503.138,307.883z"/>
  		<path class="facePath" d="M69.833,309.229c2.918-0.227,0.609,4.773,1.346,6.729C65.939,315.407,67.575,311.354,69.833,309.229z"/>
  		<path class="facePath" d="M384.719,309.229c-0.065,7.35-7.924,17.918-12.11,25.567C372.985,322.614,374.973,312.042,384.719,309.229z"/>
  		<path class="facePath" d="M474.878,310.574c5.361,1.936,3.747,18.552-4.036,16.147C470.636,319.788,472.564,314.989,474.878,310.574z"/>
  		<path class="facePath" d="M457.385,346.907c3.88,15.598,9.344-6.343,12.111-12.111c3.064,2.766,0.042,11.621,2.691,14.803
  			c4.232-0.673,5.26,2.934,8.072,0c3.543-12.604,7.354-24.94,12.111-36.333c5.104,15.436-8.354,23.934-5.383,41.715
  			c-7.066,7.287-14.304,14.405-17.493,25.568C458.737,375.658,452.8,363.219,457.385,346.907z"/>
  		<path class="facePath" d="M700.95,314.611c5.042-0.937,3.278,10.183-1.347,8.073C698.629,318.569,701.927,318.727,700.95,314.611z"/>
  		<path class="facePath" d="M329.547,318.648c5.456-0.521,1.481,8.386,2.69,12.11C324.527,333.224,325.679,319.692,329.547,318.648z"/>
  		<path class="facePath" d="M542.162,318.648c-0.239,9.643-2.828,28.561-9.42,36.333c0.331-4.154,1.364-7.607,2.69-10.766
  			c-0.886-4.03-2.877,1.287-5.383,0C531.163,332.769,540.525,329.571,542.162,318.648z"/>
  		<path class="facePath" d="M161.338,322.685c3.657,8.672-5.106,10.34-14.802,9.419C148.861,326.324,152.843,318.191,161.338,322.685z"/>
  		<path class="facePath" d="M281.103,321.339c5.458,3.57,5.505,12.386,2.691,17.494c-8.918,1.292-6.422-8.829-6.729-16.148
  			C279.004,324.19,280.349,324.136,281.103,321.339z"/>
  		<path class="facePath" d="M273.028,322.685c-6.014,15.11,9.582,19.596,14.803,30.95c4.088-1.659-1.459-4.627,0-8.074
  			c0.399,14.609,27.944,37.104,26.913,6.729c5.159,6.572,0.88,20.818-4.037,25.567c-15.557,1.65-16.1-11.71-20.185-21.531
  			c-3.174,1.976-2.504,2.84-6.729,1.346c5.84,9.859,10.551,20.849,14.803,32.296c3.451-0.136,2.162-5.014,4.036-6.728
  			c6.099,5.996-0.614,13.213,0,21.53c-4.029-4.493-5.81-11.235-8.073-17.493c-5.564,3.406-0.064,17.877-10.766,16.146
  			c-7.741-5.382-0.583-14.502,2.691-20.185c-4.465-11.094-1.695-26.875-6.729-30.95c-5.865,2.727,1.647,10.548,0,17.493
  			c-3.173,0.416-2.504,4.673-6.729,4.037C275.457,356.502,266.013,337.387,273.028,322.685z"/>
  		<path class="facePath" d="M394.139,325.376c6.299,4.702,2.86,25.723-4.037,29.604C385.92,342.822,393.059,336.097,394.139,325.376z"/>
  		<path class="facePath" d="M404.903,325.376c1.309,0.037,1.045,1.647,1.346,2.691c5.018,1.759,8.935,5.782,16.148,6.728
  			c0.78,5.268-1.158,7.813-2.691,10.766c-10.171,1.275-8.474-7.249-16.148-5.383C404.122,332.854,404.335,330.392,404.903,325.376z"
  			/>
  		<path class="facePath" d="M610.791,325.376c3.503,1.88,8.094,2.671,12.11,4.037c-0.405,6.771-1.804,12.55-5.384,16.147
  			C610.032,342.327,606.17,333.457,610.791,325.376z"/>
  		<path class="facePath" d="M289.177,328.068c7.58-0.982,7.58,15.784,0,14.802C286.854,338.298,288.24,333.007,289.177,328.068z"/>
  		<path class="facePath" d="M357.806,328.068c7.715,1.642,15.98,12.714,9.42,20.185C358.097,345.276,354.744,336.742,357.806,328.068z"/>
  		<path class="facePath" d="M326.855,333.45c4.292,5.162,8.777,12.562,16.147,10.766c1.971,2.964,4.09,5.779,4.037,10.766
  			C334.701,362.62,326.828,346.697,326.855,333.45z"/>
  		<path class="facePath" d="M496.409,333.45c6.969,24.021-6.239,39.509-17.494,49.79c-2.245,7.804,5.713,10.465,1.346,16.147
  			c-3.938,1.209-4.134,1.209-8.073,0C468.549,371.032,496.659,362.892,496.409,333.45z"/>
  		<path class="facePath" d="M379.336,334.796c2.011,4.303-0.385,15.727-8.073,14.803C370.728,341.438,374.962,338.048,379.336,334.796z"/>
  		<path class="facePath" d="M263.608,336.142c3.471,1.849,0.299,8.245,0,10.767c6.273-2.416,8.45,14.316-2.691,12.111
  			C259.438,351.436,259.496,343.777,263.608,336.142z"/>
  		<path class="facePath" d="M174.795,340.179c3.576,3.666,0.125,11.722-1.346,14.803C169.643,351.084,174.742,344.679,174.795,340.179z"/>
  		<path class="facePath" d="M297.251,341.524c2.173-0.38,2.316,1.271,4.037,1.346c0.981,6.364-1.92,8.846-4.037,12.111
  			C291.732,353.258,295.854,344.533,297.251,341.524z"/>
  		<path class="facePath" d="M425.089,342.87c4.854,6.015,11.96,15.084,8.074,25.567c-2.872,0.629-2.563-1.923-2.691-4.037
  			c-2.709,1.798-4.398,8.662-8.073,5.382C424.122,359.668,428.066,354.817,425.089,342.87z"/>
  		<path class="facePath" d="M661.926,342.87c5.042-0.937,3.279,10.183-1.346,8.074C659.604,346.828,662.902,346.986,661.926,342.87z"/>
  		<path class="facePath" d="M400.867,344.216c3.12-0.429,5.166,0.216,6.728,1.347c-0.602,7.022-3.313,11.936-4.037,18.839
  			C400.472,362.088,398.705,351.068,400.867,344.216z"/>
  		<path class="facePath" d="M203.054,346.907c5.038-0.968,8.17,11.541,12.111,16.147c9.215,2.447,15.807,7.519,22.876,12.111
  			c1.652-5.496-11.618-14.066-6.729-22.876c3.89,12.707,13.678,19.515,16.148,33.642
  			C232.11,373.471,208.287,369.484,203.054,346.907z"/>
  		<path class="facePath" d="M330.893,437.066c2.266-17.52,32.728-25.522,29.604-48.443c-12.834,20.359-28.936,37.45-47.099,52.479
  			c7.197-20.17,29.52-46.258,16.148-69.975c-2.231,20.779-6.472-18.271-9.42-22.876c4.531,14.021,20.743,24.292,20.185,40.37
  			c-0.414,11.936-10.299,19.359-12.11,32.296c13.819-8.607,22.112-22.743,26.913-40.37c-2.731-7.586-9.939-10.694-16.148-14.802
  			c4.644,7.917,8.077,17.042,6.729,30.95c-5.151-9.309-7.143-28.316-14.802-39.024c16.04,5.939,26.108,17.851,41.716,24.223
  			c8.551-6.252,5.332-24.272,8.073-36.334c6.897,18.894-0.73,45.29,10.766,60.556c12.271-1.186,17.55-9.363,18.839-21.53
  			c0.866,10.796,5.891,17.434,5.383,29.604c-5.833,0.898-3.623-6.245-4.037-10.767c-10.854,1.831-18.49,18.199-30.95,22.876
  			c-3.608-12.09-3.842-27.557-12.11-34.987c-4.846,2.332-5.544,8.812-6.729,14.803c-8.606,12.477-25.238,16.927-25.568,37.679
  			c-4.533,2.194-5.742,7.714-12.11,8.074c-0.235-7.135-0.871-6.867,0-13.457c2.918-0.228,0.609,4.772,1.346,6.729
  			C331.468,445.878,338.055,429.433,330.893,437.066z"/>
  		<path class="facePath" d="M178.832,348.253c3.807,3.896-1.293,10.303-1.346,14.802C171.362,360.324,178.635,353.034,178.832,348.253z"/>
  		<path class="facePath" d="M181.523,349.599c10.135,8.705,10.984,31.603,6.729,47.099c-23.843,0.518-17.685-28.965-25.568-44.407
  			c9.81,4.992,6.552,23.053,14.803,29.604C181.751,373.143,184.563,362.014,181.523,349.599z"/>
  		<path class="facePath" d="M302.633,349.599c2.68,1.357,5.748,2.326,6.729,5.383c-0.066,5.315-2.758,8.007-8.073,8.073
  			C298.148,359.243,301.093,352.896,302.633,349.599z"/>
  		<path class="facePath" d="M81.944,352.29c2.358,1.229,4.675,2.501,4.037,6.728C81.776,359.634,81.679,356.143,81.944,352.29z"/>
  		<path class="facePath" d="M657.889,352.29c2.273,5.062,7.354,10.036,2.691,14.802C654.134,365.408,657.638,358.12,657.889,352.29z"/>
  		<path class="facePath" d="M408.94,353.635c3.062,0.252,9.146,10.71,9.42,1.347c2.041,4.333,0.122,16.233-4.037,18.839
  			C407.468,372.195,406.056,360.863,408.94,353.635z"/>
  		<path class="facePath" d="M539.471,356.327c5.828,3.601-2.648,14.954-9.42,14.802C526.037,363.113,536.961,361.923,539.471,356.327z"/>
  		<path class="facePath" d="M398.176,360.364c3.402,4.369-2.119,11.287-2.691,16.147C391.383,371.444,396.317,363.939,398.176,360.364z"/>
  		<path class="facePath" d="M542.162,365.747c-3.687,14.726,2.723,31.139,13.456,39.024c-0.229,21.302-0.942,42.117-14.802,49.789
  			c2.757-15.03,20.277-37.047,2.69-48.443c5.155,20.475-4.463,36.43-22.877,37.679c-5.576-14.211,10.747-16.656,14.803-25.567
  			C539.758,397.554,530.339,378.645,542.162,365.747z"/>
  		<path class="facePath" d="M194.979,368.438c9.057,15.759,0.652,41.891-13.456,47.1c-0.599,4.335-2.578,7.29-2.691,12.109
  			c-15.259-12.478,10.37-22.488,16.147-30.949C194.979,387.277,194.979,377.857,194.979,368.438z"/>
  		<path class="facePath" d="M523.322,368.438c4.214,8.646-2.291,17.158-10.766,17.494c-4.792,12.702-19.994,14.994-30.95,21.53
  			c7.063-11.327,10.839-25.942,22.877-32.296c-3.352,5.621-5.812,12.132-9.421,17.494
  			C505.665,391.14,508.052,369.771,523.322,368.438z"/>
  		<path class="facePath" d="M404.903,375.166c2.443,7.14,0.621,18.67-5.382,21.531c-8.812-1.058-10.433-9.306-10.767-18.839
  			C394.086,379.676,397.013,376.878,404.903,375.166z"/>
  		<path class="facePath" d="M426.435,375.166c6.796,7.09-3.365,19.743-9.42,22.877c-2.156-4.574-2.156-16.958,0-21.531
  			C420.545,382.02,423.272,379.628,426.435,375.166z"/>
  		<path class="facePath" d="M531.396,377.857c-1.654,6.613,4.604,33.805-10.767,28.259c1.366-7.772,6.911-15.062,0-20.186
  			C525.024,384.044,528.083,380.823,531.396,377.857z"/>
  		<path class="facePath" d="M149.228,387.277c6.264,1.089,13.046,9.237,6.729,14.803c-4.565-0.37-4.612-5.257-9.42-5.383
  			C145.743,391.867,148.1,390.188,149.228,387.277z"/>
  		<path class="facePath" d="M425.089,501.659c-11.468,6.024-16.868,18.118-30.95,21.53c8.03-12.154,21.045-19.324,28.259-32.297
  			c-7.619,2.249-8.87,10.866-18.841,10.767c4.307-12.74,21.448-12.644,21.531-29.605c-14.553,2.045-16.922,16.271-29.604,20.187
  			c11.562-9.969,17.999-25.063,36.333-28.259c15.884-12.375,18.67-37.849,24.222-60.557c-9.058,15.963-10.5,42.438-29.604,44.407
  			c-3.756-4.722,4.49-8.914,8.074-10.766c11.772-12.449,14.365-34.078,24.223-48.443c-0.34,18.281,5.659,53.069,24.222,33.642
  			c3.754,15.97-29.275,20.961-25.567-2.69c-6.788,25.956,1.445,66.935-22.876,75.356c-4.559-5.979,2.897-15.867,6.729-13.457
  			c-1.869-10.391,4.981-12.062,5.382-20.185c-10.178,5.962-25.64,29.894-14.802,45.752c-5.314,13.974-18.973,19.604-30.95,26.914
  			C406.926,521.175,423.823,519.232,425.089,501.659z"/>
  		<path class="facePath" d="M569.075,415.536c-10.455,18.535-4.004,59.124-25.567,64.592c0.439-8.854,10.553-11.152,13.456-20.185
  			c2.904-9.034-0.465-20.425,1.346-30.951c1.642-9.536,7.524-16.16,10.767-24.223c2.115-5.26-1.382-14.06,6.729-14.802
  			c-1.156,49.333,4.52,99.027-36.333,113.037c-3.218,8.444-4.562,18.761-12.11,22.876c-1.407-10.594,6.278-24.096,2.69-37.679
  			c7.388-5.621,19.917-6.101,26.913-12.111C570.399,460.892,571.271,437.245,569.075,415.536z"/>
  		<path class="facePath" d="M201.708,396.697c5.435,8.766-7.19,22.272-12.11,29.604c1.328,8.092,2.43,16.41,4.036,24.224
  			c-14.341-4.333-10.119-20.784-8.073-33.643C193.714,412.925,198.523,405.623,201.708,396.697z"/>
  		<path class="facePath" d="M407.595,412.845c-7.403,20.409-34.171,33.109-39.023,60.556c-2.657-3.175-0.056-11.607-5.383-12.11
  			c-1.488-10.845,11.984-16.71,4.037-25.568c-3.384,6.874-1.928,17.435-9.42,22.877c1.784,7.637,9.432,9.407,6.729,21.53
  			c-4.383-3.243-6.997-8.254-10.766-12.111c-5.508,5.259-4.047,17.484-10.766,21.531c-1.555,13.218,7.629,15.696,10.766,24.223
  			c4.586-8.51-3.316-19.168,0-26.913c14.711,11.544-6.348,38.03,6.729,47.099c8.752-1.564,8.685-11.949,12.111-18.84
  			c2.694,5.35-6.407,17.31,0,22.876c2.684-9.427,9.09-15.131,14.802-21.53c-4.238-0.65-3.047,4.13-8.074,2.691
  			c1.544-10.566,7.732-16.49,18.84-17.493c-1.557,9.209-4.462,17.067-8.074,24.222c4.251,8.308,14.496,10.623,12.111,25.567
  			c-4.588-3.936-3.022-14.021-10.766-14.803c-2.746,4.152,5.339,8.97,2.691,17.493c6.024,4.663,11.57,7.741,21.53,5.383
  			c3.21,4.343,6.095,12.597,1.346,17.493c7.322,9.725,15.302,18.79,33.643,17.494c0.723-1.425-0.406-7.054,4.037-8.074
  			c10.023,11.508,18.857,24.203,26.913,37.68c-13.773-4.169-15.127-20.759-34.987-18.839c1.045,12.859,19.469,8.341,21.531,20.185
  			c-16.982-3.651-28.548-12.721-36.333-25.567c-6.265,5.077-0.749,18.831,0,25.567c-8.928-7.67-14.765-18.43-22.877-26.913
  			c-15.108-3.282-31.816-4.965-36.333-18.84c3.122-7.193,14.888-5.745,17.493-13.456c-3.317-2.49-9.257-3.379-12.111-9.42
  			c2.994-6.773,5.283-13.946,2.691-22.876c-5.105,3.417-1.728,15.315-10.765,14.802c-4.163,0.126-4.011-4.062-4.037-8.074
  			c-5.258,2.368-7.158,8.095-13.457,9.42c-8-9.604,2.203-30.615-12.111-34.986c-5.61,1.117-10.084,3.372-14.802,5.383
  			c-0.734,5.097-3.256,8.407-2.691,14.803c-16.612-15.644,3.404-36.383,8.074-51.136c2.988,7.951-3.679,17.831-6.729,24.222
  			c1.413,1.759,6.902-3.785,10.765-4.037c6.923-22.682,13.98-45.229,20.186-68.629c0,4.936,0,9.868,0,14.804
  			c4.392-8.912,10.66-19.035,8.074-30.95c-3.931,5.041-8.632,9.311-14.803,12.109c1.244-11.325,18.438-18.336,18.84-34.986
  			c0.968,16.973,5.217,30.667,9.419,44.406c8.181-3.032,10.874-11.555,14.803-18.839
  			C391.862,431.083,401.304,414.727,407.595,412.845z M418.36,593.164c-0.228,1.567-2.127,1.461-4.037,1.346
  			c0.498,5.334,3.9,7.762,8.074,9.42c1.938-19.434-9.359-25.628-18.841-33.642C399.252,582.938,416.927,582.105,418.36,593.164z
  			 M407.595,590.473c-3.808-2.022-5.731-5.93-10.765-6.729C397.007,588.561,404.866,592.675,407.595,590.473z"/>
  		<path class="facePath" d="M439.892,396.697c2.662,25.01-10.87,53.995-39.023,44.406c-7.543,0.98-6.985,10.062-14.803,10.767
  			c6.862-11.528,13.389-23.394,25.567-29.604c5.287,0.097,7.426,3.34,10.767,5.383C434.238,423.34,430.459,403.412,439.892,396.697z
  			"/>
  		<path class="facePath" d="M637.704,402.08c8.232,1.634,15.739,3.996,16.147,13.456c-1.793,1.348-4.062,2.218-5.383,4.037
  			C641.732,417.056,634.354,410.489,637.704,402.08z"/>
  		<path class="facePath" d="M204.399,408.808c5.548,2.098,12.521,14.38,22.877,16.147c0.45,4.484,3.898,5.97,2.691,12.111
  			c2.909,3.033,4.59-1.113,9.419,0c0.445,4.931-1.494,7.478-2.691,10.766c-11.544,2.125-11.121-7.718-12.11-16.148
  			C216.042,425.873,207.34,420.222,204.399,408.808z"/>
  		<path class="facePath" d="M530.051,411.499c-12.567,16.14-13.828,43.587-26.913,59.209c12.832,1.606,17.145-16.938,22.876-26.913
  			c1.46,8.209-6.587,18.516-8.073,28.259c-18.927,5.744-16.776,32.564-36.333,37.68c-1.816-15.273,9.896-17.018,13.457-26.913
  			c-5.631,0.31-7.598,9.573-13.457,5.383c-1.947-10.021,6.735-9.412,10.766-13.457c3.896-13.369,12.471-20.754,16.148-30.95
  			C512.631,432.396,516.644,417.383,530.051,411.499z"/>
  		<path class="facePath" d="M130.388,415.536c6.979,1.107,1.802,14.36-4.037,14.802C127.616,425.324,127.019,418.447,130.388,415.536z"/>
  		<path class="facePath" d="M499.101,451.869c-2.036-5.663,5.19-13.621,5.384-21.531c-22.218,3.8-25.357,26.677-45.753,32.297
  			c0.051-14.752,7.417-22.188,20.185-24.223c7.464-12.721,23.153-17.217,37.679-22.876
  			C513.531,430.415,504.343,439.17,499.101,451.869z"/>
  		<path class="facePath" d="M201.708,418.229c9.957,2.421,0.893,9.677,4.037,16.146c4.599,1.01,1.71-5.467,6.729-4.037
  			c3.154,3.551,0.226,9.176,0,13.457C204.958,439.199,199.669,432.378,201.708,418.229z"/>
  		<path class="facePath" d="M239.387,423.61c-2.282,1.772,1.777,8.529-1.346,12.109c-6.385-0.37-8.785-10.458-2.691-12.109
  			c-4.154-4.634-11.228,1.596-13.456-5.384c32.127-2.318,66.201,17.86,75.357,43.062c1.217,3.352,0.088,7.718,1.346,10.765
  			c4.233,10.262,14.761,19.461,10.765,32.296c-9.286-23.02-20.792-53.017-41.716-68.629
  			C256.198,433.712,248.165,428.289,239.387,423.61z"/>
  		<path class="facePath" d="M710.37,422.265c3.705,2.083,0.131,8.077-1.346,9.419C705.61,429.893,710.998,425.711,710.37,422.265z"/>
  		<path class="facePath" d="M248.807,442.449c-4.738-1.094-6.743-4.919-6.729-10.767c1.462-0.332,0.913-2.676,2.691-2.69
  			C250.708,428.612,251.417,438.523,248.807,442.449z"/>
  		<path class="facePath" d="M196.325,430.338c6.107,5.107,5.918,16.511,12.111,21.531c3.944-1.141-0.805-4.333,0-6.729
  			c10.582,10.949,15.193,27.868,18.84,45.753c-5.471,0.535-4.142-5.728-8.074-6.729c5.04,10.219,7.198,34.96,14.802,47.099
  			c-6.137,1.651-4.252-4.72-8.073-5.383c-3.347-26.258-13.309-45.901-22.877-65.938c4.555,3.519,8.533,7.614,13.457,10.765
  			c1.285-7.565-1.826-10.732-4.037-14.802c-1.826,0.416-1.116,3.369-1.346,5.383C197.276,459.89,198.155,443.76,196.325,430.338z"/>
  		<path class="facePath" d="M243.424,488.202c-2.728,1.524,2.9,5.964,1.346,10.766c-7.868-7.383-12.962-17.54-18.839-26.914
  			c4.725-0.238,4.426,4.546,8.073,5.384c-2.803-17.295-20.353-25.802-14.802-47.1c6.375,8.653,4.38,18.011,9.42,25.568
  			c8.663,12.992,27.448,18.863,22.876,44.406C247.936,497.146,246.444,491.91,243.424,488.202z M246.115,484.165
  			c-1.581-5.629-6.419-15.067-10.766-13.457C240.286,473.847,241.18,481.027,246.115,484.165z"/>
  		<path class="facePath" d="M252.844,435.721c12.028,0.138,11.813,11.309,9.419,20.187C258.274,450.027,252.653,445.779,252.844,435.721z"/>
  		<path class="facePath" d="M340.312,441.104c9.429,13.589,4.457,44.985-18.839,39.024c-10.079-10.289,0.356-24.824,12.11-25.567
  			C334.877,449.126,337.711,445.23,340.312,441.104z"/>
  		<path class="facePath" d="M495.062,441.104c2.5,4.522-7.673,19.073-8.073,29.604c-5.085,2.541-8.702,6.549-12.111,10.766
  			c0.829,6.413,1.794,10.053-1.345,14.804c-23.363-13.131,1.279-20.623,10.765-33.643
  			C490.745,453.784,488.124,444.996,495.062,441.104z"/>
  		<path class="facePath" d="M375.299,493.585c12.473-14.44,10.509-43.318,30.95-49.79c1.846,12.163-8.392,12.241-13.456,17.494
  			c-3.246,9.762-5.165,20.852-10.766,28.259c0.168,2.972,5.708,0.571,8.074,1.347c-0.82,8.149-7.708,10.233-13.457,13.455
  			c-3.841,6.478-6.528,14.105-14.802,16.148c9.693-16.472-4.824-29.194-5.383-47.099
  			C361.376,481.491,366.582,489.294,375.299,493.585z"/>
  		<path class="facePath" d="M438.546,447.832c-4.262,8.298-11.211,13.909-24.223,13.457c-8.046,8.998-10.463,23.626-22.876,28.259
  			C401.908,471.298,415.157,448.67,438.546,447.832z"/>
  		<path class="facePath" d="M169.412,449.178c2.783,2.007,1.862,11.641-2.691,10.767C166.361,455.098,169.207,453.458,169.412,449.178z"/>
  		<path class="facePath" d="M313.398,449.178c-2.874,9.237-7.158,17.063-6.729,29.604c-6.206-3.661-5.365-14.371-8.073-21.53
  			c4.093,0.393,1.854,7.116,5.382,8.074C308.058,460.882,305.663,449.965,313.398,449.178z"/>
  		<path class="facePath" d="M536.779,449.178c1.562,12.777-4.406,18.021-6.729,26.913c7.257-3.06,11.129-9.504,16.147-14.802
  			c-5.973,11.079-17.034,28.713-29.604,37.679c4.648-17.331,10.487-33.472,16.148-49.79
  			C534.088,449.178,535.434,449.178,536.779,449.178z"/>
  		<path class="facePath" d="M314.744,511.078c-1.844-18.214-9.001-45.504,2.691-57.863c-1.904,12.246-4.753,23.37,1.346,37.68
  			c2.491,4.113,2.016-5.932,6.729-4.037C327.06,500.069,314.902,499.574,314.744,511.078z"/>
  		<path class="facePath" d="M377.99,457.252c8.664,3.992,3.037,24.316-5.382,24.222C370.794,469.792,376.42,465.55,377.99,457.252z"/>
  		<path class="facePath" d="M476.224,457.252c2.671,4.961-4.762,11.349-10.765,12.11C462.34,463.438,471.975,460.139,476.224,457.252z"/>
  		<path class="facePath" d="M159.992,466.671c1.449,6.832-2.485,8.28-5.382,10.767C151.406,474.144,153.849,465.079,159.992,466.671z"/>
  		<path class="facePath" fill="#FFFFFF" d="M235.35,470.708"/>
  		<path class="facePath" fill="#FFFFFF" d="M246.115,484.165"/>
  		<path class="facePath" d="M457.385,472.054c3.34,6.979,4.706,15.929,5.383,25.568c-5.421,0.935-2.275-6.695-5.383-8.074
  			c-0.635,16.283-5.139,22.403-9.42,36.333C442.352,509.71,455.388,489.521,457.385,472.054z"/>
  		<path class="facePath" d="M421.052,478.782c-3.188,3.541-5.345,8.111-10.766,9.42C410.526,481.714,414.895,479.354,421.052,478.782z"/>
  		<path class="facePath" d="M228.622,484.165c11.03,9.154,14.933,25.437,22.876,37.679c4.484-7.665-3.191-14.721-4.037-21.529
  			c11.597,13.072,14.94,34.399,22.876,51.135C251.669,533.783,242.149,506.971,228.622,484.165z"/>
  		<path class="facePath" d="M504.483,493.585c6.265,6.31,3.61,19.193-4.037,21.53c1.2,4.45,1.385,9.91,6.729,6.729
  			c0.655,9.179-1.854,15.189-2.69,22.876c-5.485-6.177-8.871-14.454-14.804-20.185C489.913,509.517,502.725,507.077,504.483,493.585
  			z"/>
  		<path class="facePath" d="M196.325,498.968c4.062,3.284-1.426,8.354-2.691,10.766C190.164,507.039,195.015,501.334,196.325,498.968z"/>
  		<path class="facePath" d="M439.892,500.312c5.071,4.971,1.491,15.319-1.346,20.186C426.927,517.587,436.979,504.821,439.892,500.312z"/>
  		<path class="facePath" d="M546.198,501.659c6.213,7.321,1.033,17.896,2.69,25.566c2.07,9.57,13.072,15.981,10.767,26.913
  			c-7.401,2.555-9.994-10.374-16.147-13.457c-4.991-0.952-5.774,2.301-10.766,1.347c-2.188-2.746-4.368-5.5-5.383-9.419
  			C533.989,522.643,542.521,514.579,546.198,501.659z"/>
  		<path class="facePath" d="M589.26,559.521c-1.262-5.039-19.235-4.968-25.566-9.42c0.416-1.825,3.369-1.115,5.383-1.346
  			c-1.734-4.993-9.121-4.336-9.42-10.766c9.125,2.089,13.169,9.26,22.877,10.766c-12.121-7.168-20.57-18.006-32.297-25.566
  			c9.661-3.807,15.408,7.896,22.877,10.766c1.608-8.807-14.742-11.26-18.84-18.84c7.758,0.765,11.164,5.882,20.186,5.383
  			c1.093-13.653-19.066-6.053-20.186-17.493c14.904-2.222,29.867,6.821,32.297,21.53c-1.369,0.874-1.394,3.094-4.037,2.69
  			c1.882,4.75,6.618,10.124,1.346,14.803c7.702,9.343,26.973,7.116,39.023,12.11c-9.323,8.144-34.306,13.486-45.752,4.037
  			C581.981,558.995,587.573,559.047,589.26,559.521z"/>
  		<path class="facePath" d="M469.496,503.005c3.554,18.191-5.227,34.937-6.729,52.48c-2.738-1.298-2.905-5.168-2.69-9.42
  			c-6.017,2.059,1.186,17.334-6.729,17.493c0.811-12.646-1.675-28.589,1.347-39.023c3.088,2.743,0.486,11.175,1.346,16.146
  			c3.452-0.137,2.163-5.014,4.037-6.728c1.826,0.416,1.116,3.369,1.346,5.382c2.499-6.737,4.856-19.898,2.691-26.913
  			c-4.219,0.268-0.168,8.804-5.383,8.074c-2.493-2.889-0.908-9.857-1.347-14.803C460.378,503.755,463.874,502.316,469.496,503.005z"
  			/>
  		<path class="facePath" d="M512.558,503.005c14.771,4.594,9.193,34.242,0,41.715c-1.995-9.798,0.69-16.57,0-28.259
  			c-2.011-4.438-1.586,4.502-5.383,2.691C507.562,512.364,509.927,507.552,512.558,503.005z"/>
  		<path class="facePath" d="M299.942,512.424c14.54,15.204,5.489,49.29,12.11,69.976C304.766,563.873,294.666,534.63,299.942,512.424z"/>
  		<path class="facePath" d="M235.35,520.498c6.88,12.408,12.884,25.691,20.186,37.679c14.851,5.334,19.613,20.757,32.296,28.259
  			c-0.886,4.03-2.877-1.286-5.383,0c6.167,11.327,18.322,16.666,21.53,30.95c-10.468-16.444-31.426-22.399-43.062-37.679
  			c6.811-0.979,7.97,3.693,13.457,4.037c-1.386-12.521-13.493-14.316-22.876-18.839C247.317,548.901,238.913,537.12,235.35,520.498z
  			"/>
  		<path class="facePath" d="M340.312,521.844c3.477,17.463-7.168,31.456-1.346,45.753c-9.77-8.165-11.646-29.909-10.765-44.406
  			C334.048,523.385,335.711,519.405,340.312,521.844z"/>
  		<path class="facePath" d="M414.323,528.572c4.911-0.874,7.168,0.906,9.42,2.69c-1.66,9.74-10.452,18.898-18.84,17.493
  			C407.573,541.559,413.349,537.465,414.323,528.572z"/>
  		<path class="facePath" d="M575.804,590.473c-12-12.671-23.021-26.317-37.679-36.333c-2.91,1.127-4.59,3.484-9.42,2.691
  			c9.568,7.477,20.331,13.76,24.222,26.913c-7.295-5.264-12.435-12.685-18.839-18.839c-17.572-4.997-61.515-5.477-57.864-26.914
  			c0.704-4.13,4.73-8.778,9.421-6.729c4.652,1.626,5.776,6.781,6.729,12.11c7.885,9.698,29.115,10.933,36.333,1.346
  			C555.544,548.832,563.596,571.729,575.804,590.473z"/>
  		<path class="facePath" d="M445.273,533.955c-1.31,13.045-2.518,26.189-14.803,28.259c-3.032-6.399,4.793-9.351,6.729-14.803
  			c0.417-5.353-3.109-6.76-2.691-12.11C438.193,532.336,441.146,530.304,445.273,533.955z"/>
  		<path class="facePath" d="M637.704,531.264c3.578,3.458-2.589,1.924-2.691,5.383c18.981-1.039,29.202,6.683,43.062,10.766
  			c-4.125-7.985-15.166-9.057-21.53-14.802c17.122,3.964,37.021,16.802,47.098,32.296c-1.817,1.32-2.688,3.59-4.036,5.383
  			c-5.388-0.444-7.998-3.665-12.111-5.383c1.36-3.789,5.716,0.371,8.074,0c-11.336-21.1-41.312-3.02-57.863-16.148
  			c4.334-3.506,10.948,5.214,16.147,1.346c-8.328-20.82-53.545,7.217-65.938-12.11C601.508,535.983,622.415,537.931,637.704,531.264
  			z"/>
  		<path class="facePath" d="M320.127,572.979c1.191,14.066,16.628,25.529,17.493,44.406c-19.592-2.89-30.008-26.469-39.023-44.406
  			c7.549,8.149,11.39,20.01,22.876,24.223c-2.537-9.584-9.099-26.778-10.766-41.716c4.312-2.464,6.951,8.259,10.766,10.766
  			c2.52-10.164-3.563-23.336-8.074-30.95c18.477,4.02,12.012,37.052,20.185,56.519C326.758,592.949,323.722,579.481,320.127,572.979
  			z"/>
  		<path class="facePath" d="M427.78,533.955c2.372,1.216,4.167,3.01,5.383,5.382c0.347,10.013-9.793,15.889-14.803,16.148
  			C421.448,548.256,424.786,541.277,427.78,533.955z"/>
  		<path class="facePath" d="M616.173,547.411c3.68-2.713,15.974-2.566,14.803,4.037C624.514,551.631,619.697,550.167,616.173,547.411z"/>
  		<path class="facePath" d="M344.349,552.794c12.528,5.317,31.59,0.837,33.642,18.84c-2.813,0.774-3.841,3.336-8.073,2.691
  			c-0.982,5.354-0.982,5.409,0,10.765C359.667,576.052,352.79,563.642,344.349,552.794z"/>
  		<path class="facePath" d="M628.284,555.485c6.48,0.268,24.572,0.53,26.914,9.42c-11.74,0.041-18.454-2.36-26.914,0
  			c17.9,5.768,44.806-0.099,59.209,13.456c-4.682,2.39-11.423-4.688-17.493-5.383c0.843,5.906,17.481,7.622,17.493,18.84
  			c-9.943-4.612-16.707-17.222-32.295-20.186c-18.166-3.454-40.718,1.486-57.864-2.69c10.26-5.439,27.071-4.328,37.679-9.421
  			C633.788,557.158,630.298,557.061,628.284,555.485z"/>
  		<path class="facePath" d="M497.755,570.288c-12.007,0.344-21.135-2.19-24.222-10.766C479.57,550.841,497.521,560.249,497.755,570.288z"/>
  		<path class="facePath" d="M695.567,579.707c-10.027-8.438-24.583-7.915-29.604-18.839C679.335,558.412,690.148,569.764,695.567,579.707z"/>
  		<path class="facePath" d="M439.892,578.361c1.925,5.253,9.205,5.148,8.073,13.457c-12.189-2.163-18.957-9.751-20.185-22.876
  			C434.781,559.745,447.941,570.346,439.892,578.361z"/>
  		<path class="facePath" d="M355.114,622.769c-10.676-14.021-18.603-26.554-21.531-45.753C347.541,579.27,359.743,601.911,355.114,622.769z"/>
  		<path class="facePath" d="M665.963,579.707c6.376,4.39,10.813,10.718,14.803,17.494c-5.32,3.914-7.842-6.467-12.11-8.074
  			c2.234,6.736,5.583,12.358,6.729,20.186c-6.12-2.853-7.371-10.571-9.42-17.493c-14.149,0.245-15.12-12.69-28.259-13.457
  			C647.318,572.233,659.413,582.775,665.963,579.707z"/>
  		<path class="facePath" fill="#FFFFFF" d="M517.939,579.707c2.738,1.298,2.905,5.168,2.69,9.42c18.68,3.805,38.721,13.236,34.987,34.987
  			c-7.041-15.835-14.45-31.304-39.024-29.604C518.204,590.737,518.074,585.225,517.939,579.707z"/>
  		<path class="facePath" d="M534.088,667.176c-21.888-5.474-38.4-16.322-48.443-33.642c6.5,1.143,12.127,14.771,24.223,14.802
  			c-4.541-7.133-15.13-19.85-18.84-32.296c-14.815-2.229-17.445-16.646-21.53-29.604c21.366,1.116,33.247,23.23,41.716,41.717
  			C504.156,650.72,538.093,643.241,534.088,667.176z"/>
  		<path class="facePath" d="M645.778,591.818c9.935-0.501,21.836,8.653,22.876,21.529C654.236,612.965,657.84,594.559,645.778,591.818z"/>
  		<path class="facePath" d="M299.942,598.547c13.483,2.435,13.343,17.492,20.185,29.604c2.897,5.13,11.457,6.344,8.074,13.457
  			C302.292,646.131,312.562,611.31,299.942,598.547z"/>
  		<path class="facePath" d="M433.163,610.657c1.346,0,2.69,0,4.037,0c2.587,17.148,28.27,11.204,32.296,26.914c3.117-1.817-0.253-10.122,4.037-10.767
  			c5.732,7.717-0.139,20.485,4.036,30.95c-8.714-4.294-11.982-14.034-16.147-22.876
  			C449.576,629.231,437.111,624.203,433.163,610.657z"/>
  		<path class="facePath" d="M648.47,613.349c6.336,2.188,12.021,5.024,12.11,13.457C653.151,625.712,646.851,623.491,648.47,613.349z"/>
  		<path class="facePath" d="M361.843,621.423c9.113,5.092,19.275,1.15,22.876,10.767c-8.172,3.741-17.846-1.604-24.222-4.037
  			C359.385,624.348,362.394,624.665,361.843,621.423z"/>
  		<path class="facePath" d="M326.855,624.114c6.453,0.724,4.806,9.548,9.419,12.11c3.368,0.229,4.213-2.066,5.383-4.036
  			c2.749,1.288,5.325,2.749,8.074,4.036c0.43,5.363,0.074,9.941-2.691,12.11C336.535,644.039,327.971,637.802,326.855,624.114z"/>
  		<path class="facePath" d="M343.003,624.114c4.948,0.884,6.701,4.961,9.42,8.073c3.665-4.901,11.225-0.296,14.803,2.691
  			C361.945,649.224,345.182,633.304,343.003,624.114z"/>
  		<path class="facePath" d="M521.977,641.608c-5.093-0.739-7.782-3.88-8.072-9.421C517.685,629.722,521.99,636.036,521.977,641.608z"/>
  		<path class="facePath" d="M644.433,640.263c-0.649,6.686-10.148,3.264-14.803,2.691C630.375,637.589,641.212,635.176,644.433,640.263z"/>
  		<path class="facePath" d="M481.605,641.608c8.541,1.327,13.822,5.913,12.111,17.492c-3.159-0.429-5.051-2.126-9.42-1.346
  			C483.078,653.036,478.161,646.722,481.605,641.608z"/>
  		<path class="facePath" d="M499.101,656.41c8.406,1.014,13.62,5.219,14.804,13.457c-3.619-0.928-2.603,2.781-4.037,4.037
  			c-5.017,0.081-8.512-1.357-12.111-2.691C497.62,665.696,497.49,660.183,499.101,656.41z"/>
  		<path class="facePath" d="M539.471,656.41c3.767,1.425,5.642,9.523,4.037,12.111c-3.675-1.709-5.366-5.4-8.074-8.074
  			C535.021,657.344,539.321,658.952,539.471,656.41z"/>
  		<path class="facePath" d="M392.793,663.139c-0.145,17.854-26.799,27.854-22.876,49.79c2.758-2.176,3.393-6.476,5.382-9.42
  			c3.372,16.588-17.511,27.065-12.11,45.753c-4.99,0.953-5.775-2.3-10.766-1.346c4.146-4.819-1.146-8.817-6.729-8.074
  			c2.423-7.445,11.507-8.229,14.803-14.803c-14.023-3.245-13.045,20.14-28.26,20.186c1.037-6.67-0.032-7.129,0-14.803
  			c-10.253-3.655-16.896,5.875-24.222,9.42c10.683-24.305,29.622-40.353,52.481-52.48c-2.844,8.818-12.209,11.115-20.186,14.803
  			c1.36,3.789,5.716-0.371,8.074,0c-3.41,7.804-13.313,9.114-16.148,17.493c-0.877,5.363,5.117,3.854,9.42,4.037
  			c0.33,5.713-3.52,7.245-2.691,13.456c9.86-9.875,9.571-29.9,21.531-37.679c-3.351,5.319-4.733,10.336-1.346,16.148
  			c9.144-6.558,7.973-23.427,17.493-29.605c-4.605-2.757-7.457,7.754-13.456,8.074C371.296,682.012,386.562,677.093,392.793,663.139
  			z"/>
  		<path class="facePath" d="M524.668,667.176c6.248,1.725,9.698,14.803,4.037,20.186c-5.241-1.937-9.235-5.118-12.111-9.419
  			C517.722,672.788,519.059,667.846,524.668,667.176z"/>
  		<path class="facePath" d="M453.348,672.559c-2.673,4.952-6.462,8.788-9.42,13.456c3.461,4.183,3.765,5.406,2.691,12.111
  			c-3.647,1.669-3.35,5.194-8.073,2.691c-1.094,6.083-2.293,12.061-4.037,17.492c-4.006-0.479-6.828-2.143-9.42-4.035
  			c0-4.486,0-8.973,0-13.457c4.41,2.188,5.146-0.305,10.767,0C436.099,687.484,445.36,669.22,453.348,672.559z"/>
  		<path class="facePath" d="M469.496,672.559c-11.303,8.884-15.373,24.997-22.877,37.68c-2.406-4.887,4.24-11.627,6.729-20.187
  			C456.233,680.13,455.52,663.364,469.496,672.559z"/>
  		<path class="facePath" d="M538.125,672.559c7.014,4.823,17.014,13.25,13.456,24.223C545.796,690.006,539.526,683.716,538.125,672.559z"/>
  		<path class="facePath" d="M478.915,673.904c5.994,6.717-6.695,17.322-13.456,20.185c1.321,3.771,3.591-1.954,5.383,1.346
  			c0.488,8.145-8.006,15.4-13.457,9.421c1.431-8.864,3.981-10.658,4.037-18.841C469.97,684.694,475.907,680.764,478.915,673.904z"/>
  		<path class="facePath" d="M577.149,676.596c5.903,2.169,8.59,7.559,13.456,10.766c-0.977,4.582-7.557,8.622-10.766,6.729
  			C578.74,687.396,582.589,683.014,577.149,676.596z"/>
  		<path class="facePath" d="M492.372,679.287c16.581-4.459,27.782,8.094,39.024,13.456c13.184-3.289,22.035,8.119,26.912,17.494
  			c-1.563-0.22-2.395,0.297-2.69,1.346c-4.162,0.125-4.01-4.064-4.037-8.074c-14.299-4.762-34.57-15.452-45.752-1.346
  			c14.116-3.664,33.153-1.3,43.061,9.42c-8.129,4.503-11.01-7.802-21.529-5.383c3.803,4.72,9.411,7.635,16.147,9.42
  			c-6.23,3.637-12.265,7.472-20.186,9.419c-1.259-4.572-1.8-9.862-2.691-14.802c5.189,1.09,1.779,10.778,6.729,12.109
  			c7.586-4.446-3.245-8.95-1.347-16.146c-15.257-1.801-17.078,9.834-24.222,16.146c2.281,2.653,6.781,3.087,5.383,9.42
  			c-7.323,1.198-11.763,5.283-20.186,5.384c-0.013-4.191-3.184-8.771,0-12.111c-0.15-3.438-4.506-2.671-8.074-2.691
  			c1.198-10.913,7.687-16.535,12.111-24.222c2.972,2.195-1.878,7.9-2.691,10.766c5.279-0.131,10.869-11.539,16.148-16.147
  			c-1.433-3.055-8.459-0.512-12.111-1.346c5.236-2.39,10.623-4.629,18.84-4.037C506.921,679.766,499.387,682.653,492.372,679.287z"
  			/>
  		<path class="facePath" d="M586.569,679.287c4.36-1.332,11.913,0.357,18.839-1.346c-0.98,3.056-4.05,4.023-6.729,5.382
  			C593.067,683.554,592.041,679.197,586.569,679.287z"/>
  		<path class="facePath" d="M485.645,681.979c6.467,1.925-5.273,6.678-4.037,12.11c5.546,1.062,2.527-6.441,8.073-5.383
  			c-2.748,11.157-6.681,21.13-18.839,22.877C472.581,697.627,477.921,691.821,485.645,681.979z"/>
  		<path class="facePath" d="M565.038,688.706c5.63,1.548,11.306,3.049,10.766,10.766c-4.568,1.711-7.781,4.777-12.11,6.729
  			c-4.726,0.239-4.427-4.546-8.074-5.383c3.184-3.857,7.623,1.338,10.766-1.347C567.418,694.4,564.742,693.039,565.038,688.706z"/>
  		<path class="facePath" d="M392.793,690.052c2.735,5.916-4.989,12.924-6.729,18.84c0.886,4.03,2.876-1.286,5.383,0
  			c-4.925,5.842-7.839,13.692-17.494,14.803C378.088,710.334,387.076,701.829,392.793,690.052z"/>
  		<path class="facePath" d="M348.386,711.583c-0.62,5.211-3.482,8.18-9.42,8.073C340.601,715.46,341.483,710.512,348.386,711.583z"/>
  		<path class="facePath" d="M439.892,712.929c2.604,8.907-4.803,19.402-9.42,25.567c-6.759-0.625-12.194,2.562-14.803,9.42
  			c-2.037-7.893,5.913-17.394,8.074-25.568c3.789,1.36-0.371,5.717,0,8.074C430.25,725.715,437.036,721.287,439.892,712.929z"/>
  		<path class="facePath" d="M516.594,712.929c1.726,3.833,4.923,11.255,2.691,14.803C515.634,725.824,513.979,716.86,516.594,712.929z"/>
  		<path class="facePath" d="M458.73,714.274c3.433,2.26,1.271,10.281,4.036,16.146c-1.562,1.13-3.607,1.775-6.729,1.346
  			C451.882,727.371,455.104,718.435,458.73,714.274z"/>
  		<path class="facePath" d="M469.496,714.274c6.668,1.189,0.011,15.819,2.691,17.492c3.367,0.229,4.212-2.066,5.382-4.036
  			c4.072,3.297-1.021,8.759,0,13.456c-4.368-0.779-6.261,0.916-9.419,1.347C464.205,732.976,467.607,724.491,469.496,714.274z"/>
  		<path class="facePath" d="M443.928,715.62c8.172,2.61,3.842,24.843,9.42,25.567c3.72,2.941-3.537,6.239-8.073,5.383
  			c-0.446-5.381,2.398-7.471,1.346-13.457c-3.183,1.753-2.594,7.272-4.036,10.766C440.675,734.645,444.007,725.734,443.928,715.62z"
  			/>
  		<path class="facePath" d="M402.213,727.73c2.044,9.688-4.177,22.723-16.148,22.875C384.49,736.025,394.786,733.312,402.213,727.73z"/>
  		<path class="facePath" d="M373.953,729.076c1.354,5.369,0.55,19.076-9.419,17.494C365.346,738.411,365.771,729.864,373.953,729.076z"/>
  		<path class="facePath" d="M412.978,729.076c2.571,4.158-3.063,22.772-14.802,21.53C404.396,744.716,407.859,736.069,412.978,729.076z"/>
  		<path class="facePath" d="M325.51,739.842c1.097,5.032-8.296,2.49-9.42,1.346C316.632,738.91,323.985,736.695,325.51,739.842z"/>
  		<path class="facePath" d="M460.076,738.496c2.367,0.324,3.066,2.314,2.69,5.383c-1.794,0-3.589,0-5.383,0
  			C458.085,741.888,459.376,740.487,460.076,738.496z"/>
  		<path class="facePath" d="M377.99,741.188c2.371,3.377,2.224,0.944,5.383,2.691c0,1.794,0,3.588,0,5.383c-1.796,1.92-7.624,1.92-9.42,0
  			C373.894,745.164,376.795,744.028,377.99,741.188z"/>
  		<path class="facePath" d="M423.743,741.188c1.746,0.544,1.174,10.038-4.037,8.074C420.994,746.513,422.455,743.938,423.743,741.188z"/>
  		<path class="facePath" d="M435.854,741.188c3.943,1.141-0.805,4.332,0,6.729c-2.242,0-4.485,0-6.729,0
  			C430.238,744.542,433.84,743.659,435.854,741.188z"/>
  		<path class="facePath" d="M496.409,67.009c6.012,12.868-14.237,22.449-24.222,28.259C477.351,82.938,496.291,84.384,496.409,67.009z"/>
  		<path class="facePath" d="M544.854,85.848c11.612,5.48,22.332,16.727,21.53,28.259c-1.116,16.083-22.991,20.694-29.604,32.296
  			c0,2.69,0,5.383,0,8.073c7.189-2.229,7.864-10.975,16.146-12.11c3.27,2.065-2.886,5.979-2.69,9.42
  			c9.039,0.052,20.419-9.174,28.26-14.802c-6.936,9.312-12.994,26.342-24.223,26.913c2.088-6.436,9.481-7.563,12.11-13.457
  			c-6.368,0.828-16.368,9.633-21.53,16.147c-2.358-1.229-4.676-2.502-4.036-6.729c-7.923,0.601-10.224,6.821-17.494,8.073
  			c-0.546-6.825,4.7-7.859,6.729-12.11c-0.597-24.313,29.614-18.056,30.95-36.333C561.981,106.067,544.878,102.032,544.854,85.848z"
  			/>
  		<path class="facePath" d="M585.224,119.489c8.829,0.704,19.664,23.526,13.456,34.987C590.492,146.438,587.144,125.6,585.224,119.489z"/>
  		<path class="facePath" d="M445.273,143.711c0.481,5.445-11.351,10.159-14.803,16.148c9.449-2.225,22.008-12.972,33.643-17.494
  			c-12.508,18.442-41.391,20.511-43.062,49.79c6.688-0.777,12.675-15.639,13.457-13.457c-2.902,6.067-4.169,13.773-9.42,17.494
  			c-0.773,2.365,1.627,7.905-1.346,8.073c1.393,2.596,5.336-3.528,6.729-5.383c0.075,4.592-6.843,13.769-13.457,16.148
  			c-0.856-2.937,3.814-4.281-1.346-4.037c0.321-5.51,4.571-7.091,5.383-12.111c-7.262,2.172-12.115,18.375-20.185,24.223
  			c-0.296-4.333,2.38-5.694,1.346-10.767c-4.766-0.728-3.31,4.767-8.074,4.037c1.646-5.825,1.151-6.738-4.037-8.074
  			c1.224-6.401,8.032-7.219,9.42-13.457c-3.688-0.508-10.392,7.522-13.458,12.111c-3.212-5.947,5.055-11.957,6.729-17.494
  			c-6.661,2.758-12.323,6.517-16.148,12.111c1.278-15.326,26.292-18.559,26.913-39.024c6.457,9.627,3.4,26.142-1.345,34.987
  			c12.314-0.057,18.347-22.951,29.604-29.604c-4.675-3.708-6.235,7.17-12.111,6.729
  			C425.421,161.537,432.683,149.959,445.273,143.711z"/>
  		<path class="facePath" d="M345.694,147.749c-0.548,9.333-13.185,18.204-21.53,24.222c-5.942,15.588-18.778,24.283-29.604,34.987
  			c-2.984,0.741-1.916-2.57-4.037-2.691c-20.053,11.357-32.71,27.702-40.37,48.444c12.288-7.068,21.089-29.098,32.296-41.716
  			c4.992,0.995-0.102,6.718,0,10.766c4.515-8.733,12.717-7.487,20.185-12.11c11.983-7.418,14.292-25.915,30.95-28.26
  			c8.727,13.479-3.174,30.911-9.419,41.717c1.959-11.498,4.759-22.154,8.073-32.297c-6.105-0.724-8.061,2.705-12.11,4.037
  			c-9.656,20.847-35.959,25.044-48.444,43.062c-3.521-3.176,3.687-7.002,4.037-10.767c-7.011,5.997-11.801,14.217-16.147,22.876
  			c13.916-6.722,28.517-24.407,47.098-30.949c0.816,4.44-9.581,9.23-14.802,12.11c-13.963,29.021-24.971,43.927-68.629,40.37
  			c20.475-8.839,48.796-2.088,53.826-26.913c-19.334,19.368-51.361,14.991-69.975-6.729c-3.315-3.869-16.529-0.743-22.876-1.347
  			c-20.551-1.952-34.221-11.858-56.519-6.729c-6.605,19.07,12.131,23.496,17.494,34.987c-5.868-6.512-29.423-15.229-26.913-30.95
  			c4-25.064,53.379,2.561,76.702-5.383c4.754-2.872,3.578-11.672,12.111-10.766c2.486,8.045-5.076,11.103-1.346,16.148
  			c14.588-13.222,37.225-18.396,45.753-37.679c6.547-2.425,10.809-7.134,18.839-8.074c-23.023,11.515-29.622,39.455-41.715,61.899
  			c6.81-4.473,11.795-16.194,21.53-13.457c0.929,9.899-6.853,11.09-12.111,14.803c-0.963,3.653,6.346-0.962,5.383,2.69
  			c8.076-5.38,10.1-16.813,13.457-26.914c10.92-5.113,13.161-18.566,22.876-25.566c10.422-7.511,26.618-8.17,32.296-21.531
  			c2.396,0.986,0.194,2.447,0,4.037c7.823-6.979,13.624-15.98,21.53-22.876c-12.804,5.145-28.532,19.01-40.369,29.604
  			c-13.574-0.117-20.959,5.955-26.914,13.457c2.665-16.061,20.012-17.168,30.951-24.222c11.964-7.715,21.319-19.687,33.642-25.567
  			C338.753,155.161,342.229,151.46,345.694,147.749z"/>
  		<path class="facePath" d="M497.755,174.662c4.319,0.123,10.193-1.06,14.803-4.037c-2.748,2.635-2.818,7.946-8.073,8.074
  			c-0.406,3.545,1.862,4.417,5.383,4.037c-3.529,4.137-22.893-2.036-25.568,6.729c11.479,4.47,23.713,10.592,37.679,5.382
  			c-6.428,9.271-26.322,5.076-33.642,13.457c-3.887,17.645-20.271,22.791-17.493,47.099c0.91,2.943,4.472-2.551,5.382-4.037
  			c-1.092,9.3-15.087,41.054,1.347,48.443c4.181-1.201,1.353-9.413,4.036-12.11c-2.49-4.114-2.016,5.931-6.729,4.037
  			c3.023-15.817,12.932-24.748,17.494-39.024c-0.477-2.109-2.369,1.178-2.691-1.346c1.31-5.868,4.664-9.689,6.729-14.803
  			c1.461,0.333,0.913,2.677,2.69,2.691c3.404-3.931,0.455-12.957,0-17.494c-5.275-1.239-0.977,7.099-4.037,8.074
  			c-6.123-4.227,1.095-15.065,1.347-21.53c3.26,0.777,2.992,5.081,4.037,8.074c1.93-1.659,2.549-4.627,2.69-8.074
  			c4.679,6.482,1.964,24.111,0,34.987c-2.674,2.241-1.711-0.122-5.383,0c-1.489,11.322-3.357,20.651-1.346,32.296
  			c-3.634-0.403-2.413-5.661-5.383-6.729c-8.629,8.063-9.224,31.017-8.074,44.406c4.023-4.499,4.804-12.241,5.383-20.185
  			c3.802,14.131-3.138,29.147-8.074,39.023c-2.456-7.841,2.707-13.724,0-24.222c-2.393-2.513-3.42,1.093-8.072,0
  			c-4.438-8.481-6.951-21.75-5.384-32.296c-0.911-6.211-4.472,2.059-5.383-1.346c0.755-9.934,5.532-13.779,2.691-24.223
  			c-3.045-2.955-5.007,6.59-9.42,6.729c-0.137-4.172,1.646-6.429,2.69-9.42c-14.617,3.325-23.113,12.771-29.604,24.222
  			c8.16,0.983,7.927-6.427,12.11-9.42c-2.256,27.226,15.386,43.229,9.419,65.938c-0.614-20.02-14.315-26.95-17.492-44.407
  			c-0.188-4.299-6.005-2.967-8.074-5.382c-10.55,18.916,11.152,28.104,13.457,43.061c2.886-15.008-14.363-21.513-13.457-39.024
  			c8.351,17.709,25.252,33.9,20.185,60.556c-12.332-11.441-10.896-36.649-25.566-45.753c-2.394-14.331,0.47-22.536,6.729-30.95
  			c-1.229-3.659-2.502,3.585-6.729,1.346c1.938-9.724,7.472-15.854,14.803-20.185c-0.45-15.251,10.287-19.317,17.493-26.913
  			c-1.496,5.253-11.44,13.663-12.11,24.222c3.02,2.566,24.401-10.775,18.839-4.037c-11.846,5.199-26.812,7.278-30.95,20.186
  			c5.831-12.146,44.8-16.435,48.443-34.988c2.707-13.777-8.767-22.737-22.876-17.493c-9.226,3.43-14.929,17.868-22.876,20.186
  			c2.94,2.852,7.824-3.771,10.766-5.382c0.948,4.573-10.172,8.64-14.803,12.11c-3.395-10.591,13.706-12.295,17.494-20.185
  			c-20.072,2.355-19.871,24.984-43.062,24.222c3.981,8.831,13.394-0.826,22.876,1.346c-10.805,12.538-32.877-2.188-40.37,12.111
  			c8.853,0.644,17.044-5.988,21.53,1.346c-0.18,6.216-11.155,4.271-13.456,1.347c-8.626,2.14-12.888,8.643-21.53,10.765
  			c3.383,9.882,4.487,18.684,2.691,30.95c-4.66-6.554-5.949-16.479-9.42-24.223c3.883,0.603,3.181,5.79,6.729,6.729
  			c-1.188-8.232-7.501-11.339-14.803-13.457c18.105,0.163,18.316-17.568,29.604-24.222c-15.62,1.879-25.884,20.761-45.753,22.876
  			c1.715-18.022,21.962-17.512,24.223-34.987c4.371-0.113,8.277-0.693,10.766-2.691c-1.138-3.49-5.903,2.59-8.074-1.346
  			c-1.092-15.893,13.495-16.109,17.493-26.913c2.694,3.661-3.249,10.156-4.037,14.802c2.765,2.675,8.545-3.051,13.457-2.69
  			c-2.032,6.491-9.812,7.231-9.42,16.147c5.446-3.075,11.801-5.243,16.148-9.419c3.491,1.138-2.589,5.903,1.346,8.074
  			c16.437-7.146,27.184-12.89,37.68-26.913c-6.349-2.999,6.317-16.44,9.419-22.876c-2.249,9.58-5.817,24.703-9.419,34.987
  			c16.149-3.137,19.067-19.507,36.333-21.53c-2.65-8.754-7.981,0.08-13.457,0c5.955-11.539,14.982-20.004,24.222-28.259
  			c-9.141,1.176-9.672,10.961-20.185,10.766c-1.813-10.881,12.125-23.288,21.529-22.876c-2.014,2.473-5.615,3.355-6.729,6.729
  			c7.581,4.139,17.725-2.05,28.26-5.382c-5.046,4.842-12.809,14.079-20.186,12.11c-5.276,5.489-10.008,11.522-13.456,18.839
  			c5.942-1.253,12.954-13.047,21.53-16.147c-0.611,5.668-6.364,6.195-8.074,10.765c10.811-1.749,10.763-14.355,22.877-14.802
  			C508.23,168.094,501.366,169.751,497.755,174.662z M458.73,201.575c15.323-5.636,20.184,6.494,24.222,16.147
  			c-2.203-11.623,3.613-15.226,6.729-21.53C480.938,192.112,460.884,191.169,458.73,201.575z"/>
  		<path class="facePath" d="M578.495,178.699c1.526,0.256,0.747,1.35,0,1.346c0.304,1.714,4.016,1.764,4.037,0c3.614,6.353-10.843,6.17-12.111,12.111
  			c15.07,4.953,35.608-7.271,36.333-25.567c4.289,24.479-18.728,33.301-41.716,34.987
  			C560.368,190.778,572.246,185.837,578.495,178.699z"/>
  		<path class="facePath" d="M635.013,228.488c-1.729-3.764-2.781,4.238-6.729,2.69c0-3.14,0-6.279,0-9.419c-6.77,0.408-10.029,4.324-16.147,5.382
  			c14.192-11.375,34.275-16.858,39.024-37.678c3.09,10.287-6.295,19.706-10.767,26.913c8.782-3.099,0.183,6.795-1.346,9.419
  			c17.194-1.046,30.368,1.928,47.1,1.346c-9.889,4.019-23.211,4.602-33.643,8.074c2.539-2.843,6.102-4.664,9.419-6.729
  			c-10.697-3.055-24.071,2.828-30.95,8.073C629.091,240.181,631.704,228.301,635.013,228.488z"/>
  		<path class="facePath" d="M162.684,236.562c16.801,6.977,57.744,1.462,59.21,28.259c-3.939,0.351-4.135-3.042-8.074-2.691
  			c1.354,12.104,12.912,14.001,12.111,28.259c-6.465-13.721-16.204-24.167-22.877-37.679c5.191,0.191,6.219,4.547,12.111,4.037
  			C207.273,240.417,172.831,250.637,162.684,236.562z"/>
  		<path class="facePath" d="M629.63,240.6c5.572-0.942-1.404,4.719,2.691,6.729c16.5-17.143,54.707-2.404,49.79,21.531
  			c-5.207,1.17-4.787-3.287-8.074-4.037c-0.98-3.671,2.674-2.708,2.69-5.382c-4.094-3.532-13.88-1.371-18.84-4.037
  			c2.562-4.348,12.054,4.234,13.457-2.691c-16.251-11.602-34.049-1.404-47.099,4.037C624.677,252.342,628.791,248.067,629.63,240.6z
  			"/>
  		<path class="facePath" d="M176.141,287.698c-1.993-9.516-11.311-6.39-17.493-10.766c-9.508-6.729-10.992-22.472-22.877-26.914
  			c14.87,0.389,15.88,26.279,34.987,26.914c3.019-3.984-6.737-6.667-6.729-12.11c2.744,0.396,2.639,3.641,5.383,4.037
  			c2.521-2.562,0.147-3.382,0-6.729c5.712,3.708,4.928,13.912,9.42,18.84c3.085-2.462-0.991-7.417-2.691-12.11
  			c6.889,5.67,15.215,9.903,20.185,17.493c-6.264,0.434-7.488-4.173-12.11-5.382c7.135,24.294,43.219,26.714,44.407,52.48
  			c-11.627-7.662-14.141-24.437-28.26-29.604c-3.047,4.716,6.434,6.466,4.037,14.803c-7.608-27.378-52.165-17.81-57.863-47.099
  			C150.584,277.384,161.114,288.36,176.141,287.698z"/>
  		<path class="facePath" d="M546.198,290.389c3.817,5.194-5.196,8.498-1.347,14.803c10.665-0.55,9.022-13.406,12.111-21.531
  			c3.273,4.68,0.902,15.211-1.346,18.839c4.014,2.165,6.897-8.312,8.074-13.457c3.463,13.444-5.703,32.728-14.804,33.642
  			c-2.812-3.208,3.019-5.932,4.037-9.419c-8.188-3.673-14.384,6.228-17.493,12.111C537.194,317.255,540.16,298.714,546.198,290.389z
  			"/>
  		<path class="facePath" d="M508.521,395.351c2.065,7.476-11.622,10.787-13.457,18.84c2.457,1.491,8.721-4.686,10.766-8.074
  			c2.931,2.586-4.369,6.318-5.383,9.42c8.763-1.554,11.552-9.081,16.146-14.802c0.012,11.234-15.352,18.729-26.913,22.876
  			c-2.361-1.16,1.859-7.008,2.691-9.42c-8.898,0.97-8.846,10.89-21.53,8.073c-8.908-6.732-4.369-25.35-9.42-39.023
  			c-4.367-11.825-14.844-13.494-17.494-25.568c0.399,9.582,7.788,30.645,2.691,45.752c-4.243-5.624-4.126-15.609-8.073-21.53
  			c-0.516,17.427-11.675,24.21-13.457,40.37c-17.863-15.117,15.818-25.033,12.111-47.099c5.139,1.141,4.968,7.592,6.728,12.111
  			c1.507-23.938-12.903-43.61-17.493-65.938c6.264,25.146,36.878,45.255,40.37,74.012c0.492,4.056-1.406,9.444,0,13.457
  			C474.648,431.168,498.681,404.766,508.521,395.351z"/>
  		<path class="facePath" d="M282.448,430.338c-10.127-6.877-18.713-24.562-34.987-13.456c-4.929-3.146-9.724-6.425-14.803-9.42
  			c-2.242,1.795-2.09,5.983-4.036,8.074c-1.91-0.116-3.812-0.222-4.037,1.346c-18.348-1.838-8.649-31.721-24.223-36.333
  			c-0.508-13.396-4.475-23.336-6.729-34.986c7.043,5.965,8.696,17.319,13.457,25.566c14.808-0.005,22.906,6.699,32.296,12.111
  			c-5.778,3.313-16.61-5.723-29.604-1.346c1.227,5.074,10.14,14.064,14.803,20.186c4.029-0.886-1.287-2.877,0-5.383
  			c6.898,3.418,10.374,10.258,18.839,12.11c-2.275-5.814-14.853-12.943-22.876-17.493c8.613-0.522,20.746,7.051,26.913,13.457
  			c0.575-12.697-19.771-16.105-32.296-20.186c26.455-1.781,45.464,15.537,59.209,30.95c0-2.691,0-5.383,0-8.074
  			c-4.461-3.84-16.231-6.588-13.457-21.53c6.439,1.953,3.345-5.627,4.037-9.42c4.74,5.128,3.812,15.926,8.074,21.531
  			c1.71-10.697-5.545-24.048-12.111-30.951c0.165,4.963,2.272,20.146-8.073,21.531c3.534-8.079-2.771-10.612-6.729-14.803
  			c2.955-8.707,0.333-22.991,8.074-26.913c-0.386,5.534-8.161,20.482,4.037,18.839c0.059-2.302-1.001-3.485-2.691-4.037
  			C278.075,365.637,276.645,405.189,282.448,430.338z"/>
  		<path class="facePath" d="M274.374,428.992c5.439,5.326,11.457,10.074,17.494,14.803c-4.329-9.127-8.694-18.219-10.766-29.604
  			c1.871-5.86,4.655,0.988,6.729,2.69c4.611-3.015,3.631-11.62,5.383-17.493c5.532,6.222-6.472,25.307,2.691,32.295
  			c4.223-1.584-1.089-13.723,5.383-16.146c3.159-3.279,3.012,1.501,5.382,2.69c4.461-0.023,1.366-7.604,4.037-9.42
  			c3.17-0.029,3.962,2.317,8.074,1.347c0.938-7.219-4.05-8.512-8.074-10.766c-0.203-11.417,1.386-21.043,13.457-20.186
  			c0.597,1.198,1.182,2.407,2.691,2.69c-5.642,23.16-4.839,42.412-26.913,52.48c0.774,2.813,3.336,3.842,2.69,8.074
  			c3.798,0.209,3.373-3.805,5.383-5.384c2.869,6.495,0.168,18.979-5.383,21.531c-0.121-18.27-13.424-23.356-14.802-40.37
  			c-5.73,14.718,10.509,19.085,9.42,33.643C289.612,444.256,279.382,439.236,274.374,428.992z"/>
  		<path class="facePath" d="M399.521,528.572c2.014-6.525,13.592-15.104,20.185-21.531C421.442,517.316,405.665,521.695,399.521,528.572z"/>
  		<path class="facePath" d="M411.632,451.869c-5.238,7.331-14.734,22.038-21.53,32.296C392.954,474.448,400.52,457.81,411.632,451.869z"/>
  		<path class="facePath" d="M229.968,500.312c13.425,9.298,16.111,34.324,29.604,48.443c5.846,6.118,14.3,8.124,18.839,14.803
  			c-0.109-1.749-2.367-19.996-2.691-21.53c9.562,2.224,4.861,12.771,6.729,18.84c3.037,9.871,13.589,16.573,13.457,26.913
  			c-11.793-2.928-13.456-16.275-21.531-24.223c-3.826-3.766-10.952-5.151-14.802-9.42
  			C246.208,539.326,243.146,516.164,229.968,500.312z"/>
  		<path class="facePath" d="M684.803,536.646c4.89,2.307,22.3,3.699,26.913,10.765C702.097,546.654,691.128,544.083,684.803,536.646z"/>
  		<path class="facePath" d="M679.42,537.991c2.621-3.397,6.347,3.433,9.419,4.037C687.165,544.479,681.967,539.123,679.42,537.991z"/>
  		<path class="facePath" d="M624.247,598.547c3.568-1.946-4.94-3.006-2.691-8.074c20.688-2.744,24.271,11.614,34.988,18.84
  			c-7.171-0.922-14.979-12.818-29.604-10.766c14.707,8.42,16.036,22.317,25.567,36.333c-10.356,0.922-22.049-8.442-37.679-6.729
  			c-0.258,5.19,8.434,1.434,10.765,4.036c-10.312,3.558-27.057-5.211-39.022,0c8.335,1.568,25.174,3.763,34.985,8.074
  			c-15.836-2.003-40.204-4.645-55.172-4.037c16.009-9.692,43.613-15.515,67.283-9.42c-0.474-4.461-4.03-5.838-6.729-8.073
  			c-19.013,1.377-34.166,2.552-52.48,9.42c-8.234-10.156-4.002-32.78-13.457-41.717c10.805,2.652,12.37,14.544,20.187,20.187
  			c6.233-24.185-13.816-33.728-18.841-51.136c17.356,14.938,43.848,20.745,74.013,22.876c-2.857,12.395-20.043,10.459-34.987,10.766
  			c8.185-2.581,15.574-5.957,24.222-8.074c-6.663-1.637-24.946,2.129-33.642-1.346c-7.45,30.331,27.834,29.579,43.062,41.716
  			c-0.672-8.314-14.073-15.519-24.222-18.839c7.263-3.192,13.927,5.784,21.53,6.729c-5.945-11.1-24.599-9.492-33.643-17.493
  			C601.538,589.254,618.021,595.584,624.247,598.547z"/>
  		<path class="facePath" d="M528.705,575.67c20.127,13.515,34.605,32.678,36.333,64.593c24.889,2.474,52.328,2.396,68.629,13.456
  			c-4.692,16.391-30.521,11.646-43.062,20.187c5.598-6.065,13.132-10.193,24.223-10.767c-12.968-5.322-23.918,2.981-33.643,5.383
  			c5.222-8.234,17.119-9.794,28.26-12.11c-14.153-6.453-32.834,3.253-36.333,16.147c-7.032-6.425-2.539-24.375-14.804-25.567
  			c2.28,11.29,15.453,23.039,16.148,40.37c-7.618-4.941-5.979-19.141-13.457-24.223c2.384,4.848,3.674,21.595,1.346,32.296
  			c-7.271-6.186-12.255-14.657-14.803-25.566c5.391-0.007,4.461,6.305,8.074,8.074c0.604-19-13.439-35-20.186-51.137
  			c7.34,3.427,9.732,11.798,14.803,17.494c5.961-8.424-9.564-15.653-5.383-30.951c-8.734-6.365-16.286-5.865-30.949-5.382
  			c-1.962-6.111-9.371-6.777-8.074-16.147c-11.453-0.657-21.844-2.38-28.26-8.074c0.324-2.367,2.314-3.067,5.383-2.691
  			c-10.429-9.273-33.421,2.157-36.333-14.802c11.412-1.182,34.828-2.857,39.024,13.456c6.045-4.721,17.87-3.659,21.53-10.765
  			c5.207-1.17,4.787,3.285,8.073,4.037c-1.344-4.039-4.035-6.73-8.073-8.074c12.687-3.445,30.946,10.122,40.369,18.839
  			C543.72,583.943,535.79,576.688,528.705,575.67z"/>
  		<path class="facePath" d="M497.755,597.201c10.789,7.605,17.474,30.966,32.296,39.023c1.172-9.264-13.009-14.789-18.839-21.53
  			c7.312-3.688,28.333-3.644,28.259,10.766c-7.158-1.363-9.33-7.715-17.494-8.074c9.548,11.535,20.336,21.83,24.223,39.024
  			c-8.45,0.377-7.253-8.896-12.11-12.11c-3.948,1.145,1.75,3.386,0,6.729c-4.351-1.032-7.042-3.725-8.074-8.073
  			c1.082-0.713,2.186-1.404,4.037-1.346C516.862,629.229,505.153,615.37,497.755,597.201z"/>
  		<path class="facePath" d="M388.756,636.226c9.716,4.188,14.32,13.49,16.147,25.567c7.477-1.943,9.416-9.424,13.457-14.803
  			c-0.65,20.886-30.281,24.438-34.987,45.753c4.129,1.837,5.095-11.018,12.111-10.767c-4.931,7.182-7.159,17.063-17.494,18.841
  			C384.921,679.877,413.062,657.264,388.756,636.226z"/>
  		<path class="facePath" d="M262.263,465.326c3.219-6.202,2.943-15.896,8.074-20.187c3.186,14.858,3.268,33.525,10.766,47.1
  			c4.052-11.654-3.344-22.208,0-33.643c6.896,14.353,25.332,41.576,9.42,57.863c-0.502-9.366,1.24-20.977-1.346-28.259
  			c-5.656,11.104-3.42,29.146,1.346,40.37c-10.573,0.689-9.873-21.518-14.803-30.95c-7.669,31.895,25.691,34.412,24.223,64.592
  			c-4.089-1.295-2.931-7.836-5.383-10.766c-8.866-7.282-15.048-17.248-22.877-25.567c-3.385-15.236,3.364-32.442,0-47.099
  			c-11.725,6.875-3.712,32.033-6.729,44.406c-10.368-8.632-2.222-25.485-4.037-37.679c-1.86-12.499-11.991-21.981-21.53-22.876
  			C230.403,438.078,262.585,445.91,262.263,465.326z"/>
  		<path class="facePath" d="M334.929,571.634c20.149,3.674,42.416,16.757,55.173,32.296c6.97,0.863-1.62-6.411,2.691-6.729
  			c8.686,0.732,6.14,12.699,14.802,13.456c-0.096-5.462-8.97-7.207-5.382-12.11c13.809,10.257,15.247,25.021,30.95,32.296
  			c6.304-2.509-1.682-7.37-1.346-12.11c8.017-0.392,6.298,8.952,10.766,12.11c15.253,3.139,22.365,14.416,26.913,28.259
  			c-10.012-3.894-13.325-14.484-29.604-12.11c16.083,1.271,29.395,24.391,43.062,13.457c5.472,0.809,8.941,3.616,10.766,8.073
  			c-8.217,6.064-35.998,1.327-39.023-10.766c-13.976,7.556-15.31,27.753-30.95,33.643c-1.866,14.281-3.532,28.764-14.803,33.642
  			c1.6-4.231,4.543-7.12,5.383-12.11c-2.319-1.794-7.101,5.401-9.42,8.073c-2.279-4.128,4.018-11.192,6.729-14.802
  			c-1.876-2.161-6.641-1.434-8.074-4.037c2.244-7.625,4.12-15.617,6.729-22.876c-13.121,4.82-6.962,28.921-16.147,37.679
  			c5.64,0.257,4.159-6.605,10.765-5.383c-8.449,7.249-12.698,18.7-25.567,21.53c18.016-16.975,17.561-52.415,34.987-69.976
  			c7.752-0.771,9.896-7.148,13.457-12.11c3.436,16.9-14.359,24.21-14.803,41.716c7.709,0.083,6.73-8.521,8.073-14.802
  			c4.811-6.854,11.2-12.126,13.457-21.531c3.576,3.666,0.124,11.721-1.346,14.803c5.198,2.019,7.473-10.438,8.074-17.494
  			c-17.709-8.756-35.08-17.85-49.79-29.604c5.824,8.081,14.281,13.528,20.185,21.53c-13.17-7.469-28.609-24.315-48.443-29.604
  			c33.371-5.109,39.948,28.229,79.395,21.531c-5.538-5.944-17.481-3.518-21.531-13.457c-3.469,0.324,1.849,2.314,0,5.383
  			c-7.372-1.882-19.148-4.049-16.147-12.111c-14.362-0.888-23.288-7.213-37.678-8.073c1.596-6.029,15.172-0.078,18.839-4.036
  			c-7.738-2.578-19.775-0.858-25.567-5.384C357.819,584.628,344.14,580.365,334.929,571.634z"/>
  	</g>
  </g>
  <circle id="circle2" fill="none" stroke="#010101" stroke-width="20" stroke-miterlimit="20" cx="395.438" cy="391.75" r="355.037"/>
</g>
</svg>
